<?xml version="1.0" encoding="UTF-8"?> <svg xmlns="http://www.w3.org/2000/svg" id="Layer_1" data-name="Layer 1" viewBox="0 0 170 170"><defs><style>.cls-1{fill:#fff;}.cls-2{fill:#a4c639;}</style></defs><title>android</title><path class="cls-1" d="M69.57,38a2.75,2.75,0,0,0-2.39,4.09l3,5.39A24.44,24.44,0,0,0,58.21,68.23v1.61A7.53,7.53,0,0,0,45,74.78V98a7.53,7.53,0,0,0,13.21,4.94v3.25a8,8,0,0,0,8,8h2v10.32a7.53,7.53,0,0,0,15.06,0V114.12h3.5v10.32a7.53,7.53,0,0,0,15.06,0V114.12h2a8,8,0,0,0,8-8v-3.25A7.53,7.53,0,0,0,125,98V74.78a7.53,7.53,0,0,0-13.21-4.94V68.23a24.43,24.43,0,0,0-12-20.71l3-5.4A2.75,2.75,0,0,0,100.43,38,2.74,2.74,0,0,0,98,39.44L94.87,45.1a28.79,28.79,0,0,0-19.74,0L72,39.44A2.74,2.74,0,0,0,69.57,38Z"></path><path class="cls-2" d="M52.53,69.21A5.54,5.54,0,0,0,47,74.78V98A5.57,5.57,0,0,0,58.1,98V74.78a5.54,5.54,0,0,0-5.57-5.57Zm64.94,0a5.54,5.54,0,0,0-5.57,5.57V98A5.57,5.57,0,0,0,123,98V74.78a5.54,5.54,0,0,0-5.57-5.57Z"></path><path class="cls-2" d="M75.72,95.68a5.54,5.54,0,0,0-5.57,5.57v23.19a5.57,5.57,0,0,0,11.14,0V101.25a5.54,5.54,0,0,0-5.57-5.57Zm18.56,0a5.54,5.54,0,0,0-5.57,5.57v23.19a5.57,5.57,0,1,0,11.14,0V101.25a5.54,5.54,0,0,0-5.57-5.57Z"></path><path class="cls-2" d="M69.58,40a.82.82,0,0,0-.37.1.77.77,0,0,0-.31,1.08l3.92,7.08c-7.54,3.93-12.64,11.39-12.65,20h49.66c0-8.57-5.11-16-12.65-20l3.92-7.08a.77.77,0,0,0-.31-1.08.82.82,0,0,0-.37-.1.78.78,0,0,0-.7.41l-4,7.16a26.76,26.76,0,0,0-21.48,0l-4-7.16a.78.78,0,0,0-.7-.41ZM60.17,70.17v36a6,6,0,0,0,6,6h37.66a6,6,0,0,0,6-6v-36Z"></path><path class="cls-1" d="M73.54,55A2.08,2.08,0,1,0,75.61,57,2.09,2.09,0,0,0,73.54,55Zm22.92,0A2.08,2.08,0,1,0,98.53,57,2.09,2.09,0,0,0,96.46,55Z"></path></svg> 