<?xml version="1.0" encoding="UTF-8"?> <!-- Generator: Adobe Illustrator 22.1.0, SVG Export Plug-In . SVG Version: 6.00 Build 0) --> <svg xmlns="http://www.w3.org/2000/svg" xmlns:xlink="http://www.w3.org/1999/xlink" version="1.1" id="Layer_1" x="0px" y="0px" viewBox="0 0 200 200" style="enable-background:new 0 0 200 200;" xml:space="preserve"> <style type="text/css"> .st0{fill:#4A4A4A;} .st1{fill:#B52E31;} .st2{fill:#B2B2B2;} .st3{fill:#E23237;} .st4{fill:#F2F2F2;} </style> <title>logos/technologies/angularjs</title> <desc>Created with Sketch.</desc> <g id="Symbols"> <g id="logos_x2F_technologies_x2F_angularjs"> <g id="Group" transform="translate(45.000000, 42.000000)"> <g id="angularjs-for-header-only"> <polygon id="Shape" class="st0" points="21.5,65.6 21.5,51.2 23.3,51.2 32.1,62.8 32.1,51.2 33.9,51.2 33.9,65.6 32,65.6 23.2,53.9 23.2,65.6 "></polygon> <path id="Shape_1_" class="st0" d="M48.2,65c-1.2,0.4-2.4,0.7-3.8,0.7c-5.2,0-7.8-2.5-7.8-7.5c0-4.7,2.5-7.1,7.6-7.1 c1.4,0,2.8,0.2,4,0.6v1.6c-1.2-0.5-2.5-0.7-3.8-0.7c-3.9,0-5.9,1.9-5.9,5.6c0,4,1.9,6,5.8,6c0.6,0,1.3-0.1,2.1-0.2v-4.9h1.9 L48.2,65L48.2,65z"></path> <path id="Shape_2_" class="st0" d="M51.2,60.1v-8.8h1.9v8.8c0,2.8,1.4,4.1,4.1,4.1c2.8,0,4.1-1.4,4.1-4.1v-8.8h1.9v8.8 c0,3.8-2,5.6-6,5.6C53.2,65.7,51.2,63.8,51.2,60.1z"></path> <polygon id="Shape_3_" class="st0" points="68.4,51.2 68.4,64.1 75.9,64.1 75.9,65.6 66.5,65.6 66.5,51.2 "></polygon> <polygon id="Shape_4_" class="st0" points="78.6,65.6 76.7,65.6 83.9,49.3 91,65.6 89,65.6 87.1,61.1 82.3,61.1 82.8,59.6 86.5,59.6 83.8,53.1 "></polygon> <path id="Shape_5_" class="st0" d="M93,65.6V51.2h6.2c2.7,0,4.1,1.1,4.1,3.4c0,1.9-1.3,3.2-4,4.1l5,6.8h-2.5l-4.6-6.5v-1.2 c2.8-0.4,4.1-1.5,4.1-3.2c0-1.3-0.8-2-2.3-2h-4.1v12.8H93z"></path> <path id="Shape_6_" class="st1" d="M111.2,51.2v10.2c0,2.8-1.6,4.1-4.9,4.1v-1.5c2,0,3-0.9,3-2.6V51.2H111.2z"></path> <path id="Shape_7_" class="st1" d="M114.5,65.1v-1.7c1.5,0.5,3.1,0.8,4.9,0.8c2.5,0,3.7-0.9,3.7-2.7c0-1.5-0.9-2.3-2.7-2.3h-1.9 c-3,0-4.5-1.3-4.5-3.9c0-2.7,1.9-4.1,5.8-4.1c1.7,0,3.2,0.2,4.7,0.6v1.7c-1.4-0.5-3-0.8-4.7-0.8c-2.6,0-3.9,0.9-3.9,2.6 c0,1.5,0.9,2.3,2.7,2.3h1.9c3.1,0,4.6,1.3,4.6,3.9c0,2.8-1.9,4.2-5.6,4.2C117.7,65.7,116,65.5,114.5,65.1z"></path> <polygon id="Shape_8_" class="st2" points="1.8,40.2 -15,46.1 -12.3,68 1.9,75.8 16.1,67.9 18.8,46 "></polygon> <polygon id="Shape_9_" class="st1" points="17.1,47.2 1.8,42.1 1.8,74 14.6,66.9 "></polygon> <polygon id="Shape_10_" class="st3" points="-13.1,47.3 -10.8,67 1.8,74 1.8,42.1 "></polygon> <path id="Shape_11_" class="st4" d="M5.4,57.9l-3.5-7.3l-3.1,7.3H5.4z M6.7,61h-9.3l-2.1,5.2l-3.9,0.1L1.8,43.2l10.8,23.1 l-3.6,0L6.7,61z"></path> <polygon id="Shape_12_" class="st2" points="1.8,43.2 1.8,50.6 5.3,57.9 1.8,57.9 1.8,61 6.7,61 9,66.3 12.7,66.3 "></polygon> </g> </g> </g> </g> </svg> 