<?xml version="1.0" encoding="UTF-8"?> <svg xmlns="http://www.w3.org/2000/svg" id="Layer_1" data-name="Layer 1" viewBox="0 0 170 170"><defs><style>.cls-1{fill:#1b1918;}.cls-2{fill:#fff;}</style></defs><title>ansible</title><path class="cls-1" d="M125,85A40,40,0,1,1,85,45a40,40,0,0,1,40,40"></path><path class="cls-2" d="M85.67,69.44,96,95,80.39,82.67Zm18.39,31.43L88.14,62.55a2.57,2.57,0,0,0-2.47-1.69,2.66,2.66,0,0,0-2.53,1.69l-17.48,42h6l6.92-17.33L99.2,103.93a3.35,3.35,0,0,0,2.21,1,2.84,2.84,0,0,0,2.92-2.85,3.62,3.62,0,0,0-.27-1.18Z"></path></svg> 