<?xml version="1.0" encoding="UTF-8"?> <svg xmlns="http://www.w3.org/2000/svg" id="Layer_1" data-name="Layer 1" viewBox="0 0 170 170"><defs><style>.cls-1{fill:#9e5125;}.cls-2{fill:#f68634;}.cls-3{fill:#6c3b1a;}.cls-4{fill:#fcbf92;}</style></defs><title>aws-lambda</title><polygon class="cls-1" points="50 109.76 54.45 111.99 62.33 85.04 54.45 58.01 50 60.23 50 109.76"></polygon><polygon class="cls-2" points="63.09 60.07 54.45 58.04 54.45 111.99 63.09 109.97 63.09 60.07"></polygon><polygon class="cls-1" points="59.81 55.33 66.36 52.06 74.52 85.04 66.36 117.94 59.81 114.67 59.81 55.33"></polygon><polygon class="cls-2" points="79.76 113.56 66.36 117.82 66.36 52.06 79.76 56.34 79.76 113.56"></polygon><polygon class="cls-1" points="110.18 63.61 115.53 63.61 115.53 104.63 110.18 104.33 110.18 63.61"></polygon><polygon class="cls-3" points="89.39 64.21 95.4 61.11 115.11 63.61 115.7 68.87 110.3 69.62 89.39 64.21"></polygon><polygon class="cls-4" points="89.56 105.79 95.57 108.89 115.87 101.13 110.47 100.38 89.56 105.79"></polygon><polygon class="cls-1" points="91.08 97.08 101.81 98.52 101.81 71.48 91.08 72.91 91.08 97.08"></polygon><polygon class="cls-1" points="74.52 122.02 84.99 127.26 93.98 84.94 84.99 42.74 74.52 47.98 74.52 122.02"></polygon><path class="cls-2" d="M85,42.74v84.52l35-17.51V60.24Zm30.54,58.45-20.07,6V62.79l20.07,6Z"></path><polygon class="cls-2" points="101.81 71.48 101.81 98.61 112.97 85.04 101.81 71.48"></polygon></svg> 