<?xml version="1.0" encoding="UTF-8"?> <svg xmlns="http://www.w3.org/2000/svg" id="Layer_1" data-name="Layer 1" viewBox="0 0 170 170"><defs><style>.cls-1{fill:#5296d1;}.cls-2{fill:#215d9b;}.cls-3{fill:#3275b8;}</style></defs><title>aws-redshift</title><polygon class="cls-1" points="114.16 57.35 120 60.18 120 109.67 114.16 112.5 104.93 85 114.16 57.35"></polygon><polygon class="cls-2" points="55.84 57.35 50 60.18 50 109.67 55.84 112.5 70.42 85 55.84 57.35"></polygon><polygon class="cls-2" points="85 105.37 114.16 112.48 114.16 57.35 85 64.46 85 105.37"></polygon><polygon class="cls-1" points="85 105.37 55.84 112.48 55.84 57.35 85 64.46 85 105.37"></polygon><polygon class="cls-1" points="92 123.5 103.15 117.94 103.15 52.06 92 46.5 80.92 83.12 92 123.5"></polygon><polygon class="cls-2" points="78 123.5 66.85 117.94 66.85 52.06 78 46.5 87.92 85 78 123.5"></polygon><rect class="cls-3" x="78" y="46.5" width="14" height="77"></rect></svg> 