<?xml version="1.0" encoding="UTF-8"?> <svg xmlns="http://www.w3.org/2000/svg" id="Layer_1" data-name="Layer 1" viewBox="0 0 170 170"><defs><style>.cls-1{fill:#8d3324;}.cls-2{fill:#e05243;}</style></defs><title>aws-glacier</title><polygon class="cls-1" points="55.64 57.43 50 60.25 50 109.75 55.64 112.57 68.9 85 55.64 57.43"></polygon><polygon class="cls-1" points="85 105.45 114.36 112.57 119.23 85 114.36 57.43 85 64.54 85 105.45"></polygon><polygon class="cls-2" points="114.36 57.43 120 60.25 120 109.75 114.36 112.57 114.36 57.43"></polygon><polygon class="cls-2" points="85 105.45 55.64 112.57 55.64 57.43 85 64.54 85 105.45"></polygon><polygon class="cls-1" points="85 127.25 97.09 86.68 85 42.75 72.2 49.15 72.2 120.85 85 127.25"></polygon><polygon class="cls-2" points="85 127.25 85 42.75 97.8 49.15 97.8 120.85 85 127.25"></polygon></svg> 