<?xml version="1.0" encoding="UTF-8"?> <!-- Generator: Adobe Illustrator 22.1.0, SVG Export Plug-In . SVG Version: 6.00 Build 0) --> <svg xmlns="http://www.w3.org/2000/svg" xmlns:xlink="http://www.w3.org/1999/xlink" version="1.1" id="Layer_1" x="0px" y="0px" viewBox="0 0 200 200" style="enable-background:new 0 0 200 200;" xml:space="preserve"> <style type="text/css"> .st0{fill:#252F3E;} .st1{fill:#FF9900;} </style> <g> <path class="st0" d="M76,90.8c0,1.4,0.1,2.5,0.4,3.3c0.3,0.8,0.7,1.7,1.2,2.6c0.2,0.3,0.3,0.6,0.3,0.8c0,0.4-0.2,0.7-0.7,1.1 l-2.3,1.5c-0.3,0.2-0.7,0.3-1,0.3c-0.4,0-0.7-0.2-1.1-0.5c-0.5-0.5-1-1.1-1.3-1.7c-0.4-0.6-0.7-1.3-1.1-2.2c-2.9,3.4-6.4,5-10.8,5 c-3.1,0-5.5-0.9-7.3-2.6c-1.8-1.8-2.7-4.1-2.7-7c0-3.1,1.1-5.6,3.3-7.5c2.2-1.9,5.2-2.9,9-2.9c1.2,0,2.5,0.1,3.9,0.3 c1.4,0.2,2.7,0.5,4.2,0.8v-2.7c0-2.8-0.6-4.7-1.7-5.9c-1.2-1.1-3.1-1.7-6-1.7c-1.3,0-2.6,0.1-4,0.5c-1.4,0.3-2.7,0.7-4,1.2 c-0.6,0.3-1,0.4-1.3,0.5c-0.3,0.1-0.4,0.1-0.6,0.1c-0.5,0-0.8-0.4-0.8-1.1v-1.8c0-0.6,0.1-1,0.3-1.3c0.2-0.3,0.5-0.5,1-0.8 c1.3-0.7,2.8-1.2,4.6-1.6c1.8-0.5,3.7-0.7,5.7-0.7c4.4,0,7.5,1,9.6,3c2,2,3,5,3,9L76,90.8L76,90.8z M61.1,96.4 c1.2,0,2.5-0.2,3.8-0.7c1.3-0.4,2.5-1.2,3.5-2.3c0.6-0.7,1-1.5,1.2-2.3c0.2-0.9,0.4-1.9,0.4-3.2v-1.5c-1.1-0.3-2.2-0.5-3.4-0.6 c-1.2-0.1-2.3-0.2-3.4-0.2c-2.5,0-4.2,0.5-5.5,1.5c-1.2,1-1.8,2.4-1.8,4.2c0,1.7,0.4,3,1.4,3.9C58.2,95.9,59.5,96.4,61.1,96.4z M90.5,100.3c-0.7,0-1.1-0.1-1.4-0.4c-0.3-0.2-0.5-0.7-0.8-1.4l-8.6-28.3c-0.2-0.7-0.3-1.2-0.3-1.5c0-0.6,0.3-0.9,0.9-0.9h3.6 c0.7,0,1.2,0.1,1.4,0.4c0.3,0.2,0.5,0.7,0.7,1.4l6.1,24.2l5.7-24.2c0.2-0.7,0.4-1.2,0.7-1.4c0.3-0.2,0.8-0.4,1.5-0.4h2.9 c0.7,0,1.2,0.1,1.5,0.4c0.3,0.2,0.5,0.7,0.7,1.4l5.8,24.5l6.3-24.5c0.2-0.7,0.5-1.2,0.7-1.4c0.3-0.2,0.8-0.4,1.4-0.4h3.4 c0.6,0,0.9,0.3,0.9,0.9c0,0.2,0,0.4-0.1,0.6c0,0.2-0.1,0.5-0.3,0.9l-8.8,28.3c-0.2,0.7-0.5,1.2-0.8,1.4c-0.3,0.2-0.8,0.4-1.4,0.4 h-3.1c-0.7,0-1.2-0.1-1.5-0.4c-0.3-0.3-0.5-0.7-0.7-1.5l-5.7-23.6l-5.6,23.6c-0.2,0.7-0.4,1.2-0.7,1.5c-0.3,0.3-0.8,0.4-1.5,0.4 H90.5z M137.5,101.3c-1.9,0-3.8-0.2-5.6-0.7s-3.3-0.9-4.2-1.5c-0.6-0.3-1-0.7-1.1-1c-0.1-0.3-0.2-0.7-0.2-1v-1.9 c0-0.8,0.3-1.1,0.8-1.1c0.2,0,0.4,0,0.7,0.1c0.2,0.1,0.5,0.2,0.9,0.4c1.2,0.5,2.6,1,4,1.3c1.5,0.3,2.9,0.4,4.4,0.4 c2.3,0,4.1-0.4,5.3-1.2c1.2-0.8,1.9-2,1.9-3.5c0-1-0.3-1.9-1-2.6c-0.7-0.7-1.9-1.3-3.7-1.9l-5.3-1.6c-2.7-0.8-4.6-2.1-5.9-3.7 c-1.2-1.6-1.8-3.4-1.8-5.3c0-1.5,0.3-2.9,1-4.1c0.7-1.2,1.5-2.2,2.6-3c1.1-0.8,2.3-1.5,3.8-1.9s3-0.6,4.6-0.6c0.8,0,1.6,0,2.5,0.1 c0.8,0.1,1.6,0.3,2.4,0.4c0.7,0.2,1.4,0.4,2.1,0.6c0.7,0.2,1.2,0.4,1.5,0.7c0.5,0.3,0.9,0.6,1.1,0.9c0.2,0.3,0.3,0.7,0.3,1.2v1.7 c0,0.8-0.3,1.2-0.8,1.2c-0.3,0-0.8-0.1-1.4-0.4c-2.1-1-4.4-1.4-7-1.4c-2.1,0-3.7,0.3-4.9,1s-1.7,1.8-1.7,3.3c0,1,0.4,1.9,1.1,2.6 c0.7,0.7,2.1,1.4,4,2l5.2,1.6c2.6,0.8,4.5,2,5.7,3.5c1.1,1.5,1.7,3.2,1.7,5.1c0,1.6-0.3,3-1,4.2c-0.7,1.2-1.5,2.3-2.7,3.2 c-1.1,0.9-2.5,1.6-4.1,2C141.1,101,139.4,101.3,137.5,101.3z"></path> <path class="st1" d="M144.5,119.1c-12,8.9-29.5,13.6-44.6,13.6c-21.1,0-40.1-7.8-54.4-20.7c-1.1-1-0.1-2.4,1.2-1.6 c15.5,9,34.6,14.5,54.4,14.5c13.4,0,28-2.8,41.5-8.5C144.7,115.4,146.4,117.6,144.5,119.1z M149.5,113.4c-1.5-2-10.2-1-14.1-0.5 c-1.2,0.1-1.4-0.9-0.3-1.6c6.9-4.8,18.2-3.4,19.5-1.8c1.3,1.6-0.4,13-6.8,18.4c-1,0.8-1.9,0.4-1.5-0.7 C147.7,123.5,151,115.3,149.5,113.4z"></path> </g> </svg> 