<?xml version="1.0" encoding="UTF-8"?> <svg xmlns="http://www.w3.org/2000/svg" id="Layer_1" data-name="Layer 1" viewBox="0 0 170 170"><defs><style>.cls-1{fill:#2487c9;}</style></defs><title>azure-icon</title><g id="layer1"><g id="layer1-1"><path id="path21" class="cls-1" d="M81.26,119.59l23.58-4.17.23,0L92.94,100.94C86.26,93,80.81,86.48,80.81,86.45S93.33,51.89,93.4,51.76,102,66.44,114.06,87.43c11.34,19.66,20.7,35.87,20.78,36l.16.28H57.9ZM35,115.19s5.72-9.94,12.7-22l12.7-22L75.2,58.71C83.34,51.88,90,46.28,90.05,46.27a2.38,2.38,0,0,1-.24.6c-.15.34-7.39,15.85-16.07,34.47L58,115.2H46.48C40.17,115.22,35,115.21,35,115.19Z"></path></g></g></svg> 