<?xml version="1.0" encoding="UTF-8"?> <svg xmlns="http://www.w3.org/2000/svg" id="Layer_1" data-name="Layer 1" viewBox="0 0 170 170"><defs><style>.cls-1{fill:#035a9c;}.cls-2{fill:#184781;}.cls-3{fill:#669ad2;}.cls-4{fill:#fff;}</style></defs><title>c++</title><path class="cls-1" d="M124,107.51a7.1,7.1,0,0,0,1-3.42V65.91a7.1,7.1,0,0,0-1-3.42L85,85Z"></path><path class="cls-2" d="M88.46,129.19l33.08-19.1a7.15,7.15,0,0,0,2.44-2.58L85,85,46,107.51a7.15,7.15,0,0,0,2.44,2.58l33.08,19.1A7.67,7.67,0,0,0,88.46,129.19Z"></path><path class="cls-3" d="M124,62.49a7.15,7.15,0,0,0-2.44-2.58L88.46,40.81a7.67,7.67,0,0,0-6.92,0L48.46,59.91a7.7,7.7,0,0,0-3.46,6v38.18a7.1,7.1,0,0,0,1,3.42L85,85Z"></path><path class="cls-4" d="M85,111.67a26.67,26.67,0,1,1,23.09-40L96.55,78.34a13.33,13.33,0,1,0,0,13.32l11.54,6.68A26.75,26.75,0,0,1,85,111.67Z"></path><polygon class="cls-4" points="111.67 83.52 108.7 83.52 108.7 80.56 105.74 80.56 105.74 83.52 102.78 83.52 102.78 86.48 105.74 86.48 105.74 89.44 108.7 89.44 108.7 86.48 111.67 86.48 111.67 83.52"></polygon><polygon class="cls-4" points="122.78 83.52 119.81 83.52 119.81 80.56 116.85 80.56 116.85 83.52 113.89 83.52 113.89 86.48 116.85 86.48 116.85 89.44 119.81 89.44 119.81 86.48 122.78 86.48 122.78 83.52"></polygon></svg> 