<?xml version="1.0" encoding="UTF-8"?> <!-- Generator: Adobe Illustrator 25.0.1, SVG Export Plug-In . SVG Version: 6.00 Build 0) --> <svg xmlns="http://www.w3.org/2000/svg" xmlns:xlink="http://www.w3.org/1999/xlink" version="1.1" id="Layer_1" x="0px" y="0px" viewBox="0 0 507 552" style="enable-background:new 0 0 507 552;" xml:space="preserve"> <style type="text/css"> .st0{clip-path:url(#SVGID_2_);} .st1{fill:url(#SVGID_3_);} .st2{fill:url(#SVGID_4_);} .st3{fill:url(#SVGID_5_);} .st4{fill:#FFFFFF;} </style> <g> <defs> <path id="SVGID_1_" d="M379.1,189.7l-113.7-65.6c-6.5-3.8-17.3-3.8-23.8,0l-113.7,65.6c-6.6,3.8-11.9,13.1-11.9,20.6v131.3 c0.5,8.8,5,16.1,11.9,20.6l113.7,65.6c6.5,3.8,17.3,3.8,23.8,0l113.7-65.6c7.4-4.9,11.6-12.3,11.9-20.6V210.4 C390.7,202.4,386,194.4,379.1,189.7z"></path> </defs> <clipPath id="SVGID_2_"> <use xlink:href="#SVGID_1_" style="overflow:visible;"></use> </clipPath> <g class="st0"> <linearGradient id="SVGID_3_" gradientUnits="userSpaceOnUse" x1="305.8884" y1="306.7343" x2="384.0389" y2="206.7063" gradientTransform="matrix(1 0 0 -1 0 553.2912)"> <stop offset="0" style="stop-color:#3B009B"></stop> <stop offset="1" style="stop-color:#390086"></stop> </linearGradient> <path class="st1" d="M250.5,196.5h161.7v165.3H250.5V196.5z"></path> <linearGradient id="SVGID_4_" gradientUnits="userSpaceOnUse" x1="185.6679" y1="234.8802" x2="268.7531" y2="128.5359" gradientTransform="matrix(1 0 0 -1 0 553.2912)"> <stop offset="0" style="stop-color:#340084"></stop> <stop offset="1" style="stop-color:#290064"></stop> </linearGradient> <path class="st2" d="M412.2,367.8L204.1,247.4H97.9v199.3h314.3V367.8z"></path> <linearGradient id="SVGID_5_" gradientUnits="userSpaceOnUse" x1="189.1777" y1="398.3011" x2="274.2127" y2="289.4611" gradientTransform="matrix(1 0 0 -1 0 553.2912)"> <stop offset="0" style="stop-color:#A47EDE"></stop> <stop offset="1" style="stop-color:#9866D3"></stop> </linearGradient> <path class="st3" d="M97.9,366.1l314.3-181.9v-71.8H97.9V366.1z"></path> </g> </g> <path class="st4" d="M161.8,276c-0.5-89.5,119.4-129,171.1-45.9l-39.7,23c-24-39.6-83.4-25.4-85.6,22.9 c0.6,44.6,59.1,65.3,85.6,22.9l39.7,23C287.3,401,164.1,372.5,161.8,276L161.8,276z M313,250h7.6l-5.2,49.9h-7.7L313,250z M329.2,250h7.6l-5.2,49.9h-7.7L329.2,250z M304.6,261.9h37.8v7.3h-37.8V261.9z M302.5,279.6h37.8v7.3h-37.8V279.6z"></path> </svg> 