<?xml version="1.0" encoding="UTF-8"?> <svg xmlns="http://www.w3.org/2000/svg" id="Layer_1" data-name="Layer 1" viewBox="0 0 170 170"><defs><style>.cls-1{fill:none;}.cls-2{fill:#10a84b;}.cls-3{fill:#fff;}</style></defs><title>cucumber</title><path class="cls-1" d="M40,40h90v90H40Z"></path><path class="cls-2" d="M86,43.52a36.83,36.83,0,0,0-7,73v10.55c22-3.33,41.58-20.83,43-43.81.88-13.83-6-27.95-17.64-34.8a30.21,30.21,0,0,0-4.22-2.11l-.71-.28c-.64-.24-1.29-.51-2-.71A36.77,36.77,0,0,0,86,43.51Z"></path><path class="cls-3" d="M93.58,57.16a4,4,0,0,0-3.52,1.4,16.37,16.37,0,0,0-1.55,2.68,8.62,8.62,0,0,0,1.13,9,9.91,9.91,0,0,0,7.17-5.84,7.14,7.14,0,0,0,.71-3A4.2,4.2,0,0,0,93.58,57.16Zm-16.39.21a4.28,4.28,0,0,0-4,4.07,7.12,7.12,0,0,0,.7,3,10.24,10.24,0,0,0,7.38,5.84,9.34,9.34,0,0,0-.63-11.47,3.93,3.93,0,0,0-3.44-1.4Zm-11,10.82a3.87,3.87,0,0,0-2.18,7,16.56,16.56,0,0,0,2.67,1.62,10.13,10.13,0,0,0,9.49-.91,10.41,10.41,0,0,0-6.12-7,8,8,0,0,0-3.16-.71A5.45,5.45,0,0,0,66.16,68.19Zm34.66,13.64A10.39,10.39,0,0,0,95,83.52a10.37,10.37,0,0,0,6.11,7,8.09,8.09,0,0,0,3.17.71c4,.22,6-4.79,2.88-7a16.64,16.64,0,0,0-2.67-1.54A9.61,9.61,0,0,0,100.82,81.83ZM70.09,82a9.77,9.77,0,0,0-3.65.78,7.66,7.66,0,0,0-2.68,1.62,4,4,0,0,0,3.1,7A7.26,7.26,0,0,0,70,90.69a9.49,9.49,0,0,0,5.84-7,10.11,10.11,0,0,0-5.77-1.68Zm11.4,6.9a9.89,9.89,0,0,0-7.18,5.83,6.77,6.77,0,0,0-.7,2.88c-.23,3.83,5,5.88,7.24,3a16,16,0,0,0,1.55-2.67A9.23,9.23,0,0,0,81.49,88.94Zm8.36.21a9.32,9.32,0,0,0,.64,11.46c2.47,2.7,7.67.7,7.45-2.67a7.14,7.14,0,0,0-.71-3,10.2,10.2,0,0,0-7.38-5.83Z"></path></svg> 