<?xml version="1.0" encoding="UTF-8"?> <svg xmlns="http://www.w3.org/2000/svg" id="Layer_1" data-name="Layer 1" viewBox="0 0 170 170"><defs><style>.cls-1{fill:#374649;}.cls-2{fill:#23a0c8;}.cls-3{fill:#38b1d9;}.cls-4{fill:#1f82a6;}.cls-5{fill:#1c92b5;}.cls-6{fill:#23a3c2;}.cls-7{fill:#35bcdf;}.cls-8{fill:#d3edec;}.cls-9{fill:#bedad8;}</style></defs><title>docker-official-icon</title><path class="cls-1" d="M94.65,72.1h11V83.4h5.59A24.5,24.5,0,0,0,119,82.12a19.9,19.9,0,0,0,3.73-1.69,13.83,13.83,0,0,1-2.59-7.15c-.32-3.44.38-7.93,2.71-10.63L124,61.3l1.39,1.12c3.48,2.8,6.41,6.71,6.93,11.17a16.92,16.92,0,0,1,12.82,1.19l1.52.88-.8,1.56c-3.13,6.11-9.67,8-16.06,7.66C120.21,108.72,99.38,120,74.12,120c-13.05,0-25-4.88-31.85-16.46l-.11-.19-1-2a32.09,32.09,0,0,1-2.55-16.26l.15-1.67h9.46V72.1H59.28v-11h22.1V50H94.65V72.1"></path><path class="cls-2" d="M130.46,76.29c.74-5.76-3.57-10.29-6.25-12.44-3.08,3.56-3.56,12.9,1.28,16.83-2.7,2.39-8.38,4.57-14.2,4.57H40.45a29.85,29.85,0,0,0,2.94,16.45l.81,1.48a25.89,25.89,0,0,0,1.67,2.5c2.91.19,5.59.25,8.05.2h0a39.7,39.7,0,0,0,11.75-1.71.85.85,0,0,1,1.07.56.84.84,0,0,1-.51,1c-.4.14-.81.27-1.24.39h0a36.37,36.37,0,0,1-8.12,1.33c.19,0-.2,0-.21,0l-.36,0c-1.28.07-2.66.08-4.07.08s-3.07,0-4.77-.11l0,0c5.9,6.63,15.13,10.61,26.7,10.61,24.48,0,45.24-10.85,54.44-35.22,6.52.67,12.79-1,15.64-6.56-4.54-2.62-10.38-1.79-13.74-.09"></path><path class="cls-3" d="M130.46,76.29c.74-5.76-3.57-10.29-6.25-12.44-3.08,3.56-3.56,12.9,1.28,16.83-2.7,2.39-8.38,4.57-14.2,4.57H44.65c-.29,9.3,3.16,16.36,9.27,20.63h0a39.7,39.7,0,0,0,11.75-1.71.85.85,0,0,1,1.07.56.84.84,0,0,1-.51,1c-.4.14-.81.27-1.24.39h0a38.88,38.88,0,0,1-8.34,1.39l-.08-.08c8.33,4.27,20.41,4.26,34.26-1.06,15.53-6,30-17.33,40.07-30.34-.15.07-.3.14-.44.22"></path><path class="cls-4" d="M40.59,92.63a28.31,28.31,0,0,0,2.8,9.07l.81,1.48a25.89,25.89,0,0,0,1.67,2.5c2.91.19,5.59.25,8.05.2a39.7,39.7,0,0,0,11.75-1.71.85.85,0,0,1,1.07.56.84.84,0,0,1-.51,1c-.4.14-.81.27-1.24.39h0a38.19,38.19,0,0,1-8.33,1.36h-.41c-1.28.07-2.65.12-4.06.12s-3.13,0-4.83-.12c5.9,6.63,15.19,10.63,26.76,10.63,21,0,39.19-8,49.77-25.53H40.59"></path><path class="cls-5" d="M45.29,92.63a21.28,21.28,0,0,0,8.63,13.25,39.7,39.7,0,0,0,11.75-1.71.85.85,0,0,1,1.07.56.84.84,0,0,1-.51,1c-.4.14-.81.27-1.24.39h0a38.79,38.79,0,0,1-8.38,1.36c8.33,4.27,20.37,4.21,34.22-1.11a90.44,90.44,0,0,0,23.68-13.78H45.29"></path><path class="cls-6" d="M50.07,74h9.58v9.58H50.07Zm.8.8h.75v8h-.75Zm1.42,0h.78v8h-.78v-8Zm1.45,0h.78v8h-.78Zm1.45,0H56v8h-.79Zm1.45,0h.79v8h-.79Zm1.45,0h.76v8h-.76Zm3-11.86H70.7v9.58H61.12V62.89Zm.8.8h.75v8h-.75Zm1.42,0h.79v8h-.79v-8Zm1.45,0h.79v8h-.79Zm1.45,0H67v8h-.79Zm1.45,0h.79v8h-.79Zm1.46,0h.75v8h-.75Z"></path><path class="cls-7" d="M61.12,74H70.7v9.58H61.12V74Zm.8.8h.75v8h-.75Zm1.42,0h.79v8h-.79v-8Zm1.45,0h.79v8h-.79Zm1.45,0H67v8h-.79Zm1.45,0h.79v8h-.79Zm1.46,0h.75v8h-.75Z"></path><path class="cls-6" d="M72.17,74h9.58v9.58H72.17Zm.8.8h.76v8H73Zm1.42,0h.79v8h-.79Zm1.45,0h.79v8h-.79Zm1.46,0h.78v8H77.3Zm1.45,0h.78v8h-.78Zm1.45,0H81v8H80.2Z"></path><path class="cls-7" d="M72.17,62.89h9.58v9.58H72.17Zm.8.8h.76v8H73Zm1.42,0h.79v8h-.79Zm1.45,0h.79v8h-.79Zm1.46,0h.78v8H77.3Zm1.45,0h.78v8h-.78Zm1.45,0H81v8H80.2Zm3,10.26h9.58v9.58H83.23Zm.79.8h.76v8H84Zm1.43,0h.78v8h-.78Zm1.45,0h.78v8H86.9Zm1.45,0h.78v8h-.78Zm1.45,0h.79v8H89.8Zm1.45,0H92v8h-.76Z"></path><path class="cls-6" d="M83.23,62.89h9.58v9.58H83.23Zm.79.8h.76v8H84Zm1.43,0h.78v8h-.78Zm1.45,0h.78v8H86.9Zm1.45,0h.78v8h-.78Zm1.45,0h.79v8H89.8Zm1.45,0H92v8h-.76Z"></path><path class="cls-7" d="M83.23,51.84h9.58v9.58H83.23Zm.79.8h.76v8H84v-8Zm1.43,0h.78v8h-.78v-8Zm1.45,0h.78v8H86.9v-8Zm1.45,0h.78v8h-.78v-8Zm1.45,0h.79v8H89.8v-8Zm1.45,0H92v8h-.76v-8Z"></path><path class="cls-6" d="M94.28,74h9.58v9.58H94.28Zm.8.8h.75v8h-.75v-8Zm1.42,0h.78v8H96.5v-8Zm1.45,0h.79v8H98Zm1.45,0h.79v8H99.4Zm1.45,0h.79v8h-.79Zm1.45,0h.76v8h-.76Z"></path><path class="cls-8" d="M70.1,99.06a2.64,2.64,0,1,1,.07,5.28H70.1a2.64,2.64,0,0,1,0-5.28"></path><path class="cls-1" d="M70.1,99.81a2,2,0,0,1,.69.12.78.78,0,0,0,.38,1.45.78.78,0,0,0,.68-.41,1.89,1.89,0,1,1-2.47-1,2,2,0,0,1,.72-.14M23.36,93.58H146.29c-2.68-.68-8.47-1.6-7.51-5.1-4.87,5.63-16.61,4-19.57,1.17-3.3,4.79-22.5,3-23.84-.76-4.14,4.85-17,4.85-21.09,0-1.34,3.73-20.54,5.55-23.84.76-3,2.78-14.7,4.46-19.57-1.17,1,3.5-4.83,4.42-7.51,5.1"></path><path class="cls-9" d="M77.13,118.1C70.58,115,67,110.77,65,106.16a40.07,40.07,0,0,1-8.75,1.33c-1.28.07-2.62.11-4,.11-1.63,0-3.35,0-5.15-.14,6,6,13.39,10.61,27.06,10.7,1,0,2,0,3-.06"></path><path class="cls-8" d="M67.42,110.42A23.57,23.57,0,0,1,65,106.16a40.07,40.07,0,0,1-8.75,1.33c2.33,1.27,5.67,2.44,11.18,2.93"></path></svg> 