<?xml version="1.0" encoding="UTF-8"?> <svg xmlns="http://www.w3.org/2000/svg" id="Layer_1" data-name="Layer 1" viewBox="0 0 170 170"><defs><style>.cls-1{fill:#488590;}</style></defs><title>electron-icon</title><path class="cls-1" d="M74,61.82c-10.62-1.93-19,.09-22.37,5.89-2.5,4.33-1.79,10.07,1.73,16.2a1.09,1.09,0,0,0,1.89-1.08c-3.17-5.53-3.78-10.48-1.74-14C56.26,64,63.75,62.18,73.57,64A1.09,1.09,0,0,0,74,61.82ZM58.84,91.36a68.13,68.13,0,0,0,16.25,12.83c15.41,8.9,31.81,11.27,39.9,5.76a1.09,1.09,0,1,0-1.23-1.8c-7.23,4.93-22.82,2.68-37.58-5.85A65.77,65.77,0,0,1,60.46,89.9a1.09,1.09,0,0,0-1.62,1.46Z"></path><path class="cls-1" d="M112.41,90c7-8.22,9.39-16.48,6-22.27-2.46-4.26-7.66-6.51-14.57-6.6a1.09,1.09,0,0,0,0,2.18c6.22.08,10.69,2,12.71,5.51,2.77,4.8.61,12.18-5.82,19.77a1.09,1.09,0,0,0,.13,1.54,1.08,1.08,0,0,0,1.53-.13ZM94.53,62.19a67.84,67.84,0,0,0-19.41,7.69c-15.91,9.19-26.29,22.73-24.85,32.55a1.09,1.09,0,0,0,2.16-.31C51.15,93.4,61,80.56,76.21,71.77A66,66,0,0,1,95,64.32a1.09,1.09,0,1,0-.46-2.13Z"></path><path class="cls-1" d="M68.76,109.24C72.4,119.4,78.35,125.65,85,125.65c4.88,0,9.39-3.33,12.91-9.18a1.09,1.09,0,1,0-1.86-1.13c-3.17,5.27-7,8.13-11,8.13-5.56,0-10.87-5.58-14.23-15a1.09,1.09,0,1,0-2,.73Zm33.22-2a68.42,68.42,0,0,0,2.9-20.19c0-18-6.32-33.6-15.32-37.6a1.09,1.09,0,1,0-.88,2c8,3.56,14,18.33,14,35.61a66.06,66.06,0,0,1-2.8,19.54,1.09,1.09,0,1,0,2.08.65Z"></path><path class="cls-1" d="M122.5,106.19a5.22,5.22,0,1,0-5.21,5.21,5.22,5.22,0,0,0,5.21-5.21Zm-2.18,0a3,3,0,1,1-3-3,3,3,0,0,1,3,3Z"></path><path class="cls-1" d="M52.71,111.4a5.22,5.22,0,1,0-5.21-5.21,5.22,5.22,0,0,0,5.21,5.21Zm0-2.18a3,3,0,1,1,3-3,3,3,0,0,1-3,3Z"></path><path class="cls-1" d="M85,54.78a5.22,5.22,0,1,0-5.22-5.22A5.22,5.22,0,0,0,85,54.78Zm0-2.18a3,3,0,1,1,3-3,3,3,0,0,1-3,3Z"></path><path class="cls-1" d="M85.83,90.75a3.77,3.77,0,1,1,2.89-4.48,3.77,3.77,0,0,1-2.89,4.48Z"></path></svg> 