<?xml version="1.0" encoding="UTF-8"?> <svg xmlns="http://www.w3.org/2000/svg" id="Layer_1" data-name="Layer 1" viewBox="0 0 170 170"><defs><style>.cls-1{fill:#141414;}</style></defs><title>ember</title><g id="Page-1"><g id="Ember-Logos"><g id="Ember-Logo-1c-Black"><path id="Fill-7" class="cls-1" d="M150.21,94.77S146.92,97.32,144,97s-2-6.75-2-6.75.62-5.92-1.08-6.42-3.79,1.54-3.79,1.54A21.48,21.48,0,0,0,133.32,92l-.34.11s.4-6.46,0-7.93c-.34-.74-3.46-.68-4,.62S126,95.16,125.78,99c0,0-4.87,4.14-9.12,4.82s-5.27-2-5.27-2S123,98.56,122.55,89.33s-9.32-5.82-10.32-5.07-6.2,3.89-7.72,12.6c-.05.29-.15,1.59-.15,1.59s-4.47,3-7,3.79c0,0,7-11.73-1.53-17-2.39-1.44-4.48-.11-5.72,1.1-.76.75,10.31-11.36,7.76-22.18-1.22-5.16-3.79-5.71-6.16-4.87a10.68,10.68,0,0,0-5,3.51,39.46,39.46,0,0,0-5.72,16.77c-1.08,10-2.67,22.16-2.67,22.16s-2.21,2.15-4.25,2.27S73,97.88,73,97.88s1.59-9.4,1.48-11-.23-2.44-2.1-3S68.5,85.7,68.5,85.7s-5.38,8.16-5.84,9.4l-.28.52-.28-.35s3.79-11.1.17-11.27-6,4-6,4-4.14,6.91-4.31,7.7l-.28-.34s1.7-8,1.36-10a1.82,1.82,0,0,0-2.21-1.58s-2.38-.29-3,1.24a112,112,0,0,0-3.18,14.9s-6,4.25-9.86,4.31-3.51-2.48-3.51-2.48S45.61,96.79,41.7,87.1A7.12,7.12,0,0,0,35,83.87c-2.89.06-6.47,1.82-8.8,7a23.16,23.16,0,0,0-1.74,6.63s-2.51.51-3.87-.62-2.06,0-2.06,0-2.33,3,0,3.88a29.55,29.55,0,0,0,5.95,1.33,10.8,10.8,0,0,0,4.13,6.43c4.25,3.23,12.4-.3,12.4-.3l3.35-1.87s.11,3.07,2.55,3.51,3.45,0,7.71-10.32c2.49-5.27,2.66-5,2.66-5,.28-.06-1.64,10-.91,12.74s4,2.44,4,2.44,1.76.34,3.17-4.64a73.3,73.3,0,0,1,4.14-10.49c.34,0-.85,10.31,1,13.6s6.52,1.11,6.52,1.11a34,34,0,0,0,3.8-2.17,13.34,13.34,0,0,0,9.4,2.72c12.29-2.42,16.67-5.7,16.67-5.7a10.16,10.16,0,0,0,8.66,5.86,14.4,14.4,0,0,0,11.56-4.14s-.06,3.06,2.55,4.14,4.36-5,4.36-5l4.36-12c.4,0,.63,7.81,4.94,9.06s9.91-2.92,9.91-2.92a2.93,2.93,0,0,0,1.13-3A1.55,1.55,0,0,0,150.21,94.77ZM36.71,89.1c1.53,1.47,1,4.64-1.93,6.63s-4.19,1.59-4.19,1.59C30.76,90.57,35.18,87.62,36.71,89.1ZM93.09,65.81c1,5.1-8.44,20.29-8.44,20.29.11-3.4,3.45-14.91,3.45-14.91S92.12,60.71,93.09,65.81Zm-9.3,38.7s-.73-2.49,1.36-9.46,7-4.25,7-4.25,3.4,2.6.74,9.57S83.79,104.51,83.79,104.51Zm28.68-13.65c2.32-4.25,4.14-1.93,4.14-1.93s2,2.15-.29,5.38a6.69,6.69,0,0,1-5.55,3S110.15,95.1,112.47,90.86Z"></path><path id="Fill-11" class="cls-1" d="M135.6,108.06v-.82h.51l.22,0,.21,0a.44.44,0,0,1,.15.12.3.3,0,0,1,.06.2c0,.19-.06.31-.17.35a1.12,1.12,0,0,1-.44.08Zm-.62-1.3v3.1h.62v-1.32H136l.75,1.32h.65l-.83-1.35a1.65,1.65,0,0,0,.32-.07.58.58,0,0,0,.25-.15.52.52,0,0,0,.18-.25,1,1,0,0,0,.06-.36.78.78,0,0,0-.31-.71,1.62,1.62,0,0,0-.9-.21Zm-1,1.56a2.21,2.21,0,0,1,.16-.87,2.33,2.33,0,0,1,.44-.69,2.15,2.15,0,0,1,.66-.45,2.07,2.07,0,0,1,.82-.16,2,2,0,0,1,.81.16,2,2,0,0,1,.66.45,2.17,2.17,0,0,1,.45.69,2.21,2.21,0,0,1,.17.87,2.29,2.29,0,0,1-.17.87,2.17,2.17,0,0,1-.45.69,2,2,0,0,1-.66.45,2,2,0,0,1-.81.17,2.08,2.08,0,0,1-.82-.17,2.15,2.15,0,0,1-.66-.45,2.33,2.33,0,0,1-.44-.69A2.28,2.28,0,0,1,134,108.32Zm-.76,0a2.64,2.64,0,0,0,.24,1.14,2.6,2.6,0,0,0,.62.87,2.83,2.83,0,0,0,.91.56,3,3,0,0,0,1.07.19,3,3,0,0,0,1.08-.19,2.74,2.74,0,0,0,.9-4.58,2.6,2.6,0,0,0-.9-.55,2.84,2.84,0,0,0-1.08-.2,2.79,2.79,0,0,0-1.07.2,2.64,2.64,0,0,0-.91.55,2.6,2.6,0,0,0-.62.87A2.64,2.64,0,0,0,133.24,108.32Z"></path></g></g></g></svg> 