<?xml version="1.0" encoding="UTF-8"?> <svg xmlns="http://www.w3.org/2000/svg" id="Layer_1" data-name="Layer 1" viewBox="0 0 170 170"><defs><style>.cls-1{fill:#010101;}</style></defs><title>ios</title><path class="cls-1" d="M43.15,61A1.58,1.58,0,1,1,40,61a1.65,1.65,0,0,1,1.59-1.73A1.6,1.6,0,0,1,43.15,61Zm-2.39,51.78V73.2h1.62v39.61ZM96.39,84.59c0,20-11.09,29.05-23.22,29.05-12.4,0-22.44-9.82-22.44-28.23,0-18.89,10.39-29,23.31-29C86.7,56.36,96.39,66.35,96.39,84.59Zm-44,.41c0,15.14,7.34,26.9,20.87,26.9S94.68,99.78,94.68,84.83c0-13.87-6.26-26.52-20.55-26.52S52.38,70.22,52.38,85Zm50,23.52a23,23,0,0,0,11.47,3.57c7.67,0,14.5-5.37,14.5-13.28,0-7.33-4.55-11.16-12.27-14.44-6.91-2.94-13.12-6.14-13.12-14,0-8.17,6.44-14,15.19-14,4.7,0,8.25,1.32,9.9,2.48l-.66,1.42c-1.4-1-5.19-2.25-9.32-2.25-9.24,0-13.27,7-13.27,12.13,0,7.11,5.51,9.48,12.61,12.86,8.25,4,12.62,7.61,12.62,15.37,0,8.34-5.94,15.1-16.5,15.1-4.38,0-9.41-1.48-11.89-3.38l.74-1.65Z"></path></svg> 