<?xml version="1.0" encoding="UTF-8"?> <!-- Generator: Adobe Illustrator 22.1.0, SVG Export Plug-In . SVG Version: 6.00 Build 0) --> <svg xmlns="http://www.w3.org/2000/svg" xmlns:xlink="http://www.w3.org/1999/xlink" version="1.1" id="Layer_1" x="0px" y="0px" viewBox="0 0 200 200" style="enable-background:new 0 0 200 200;" xml:space="preserve"> <style type="text/css"> .st0{fill:#D9262A;} .st1{fill:#1E80B4;} </style> <title>logos/technologies/java</title> <desc>Created with Sketch.</desc> <g id="Symbols"> <g id="logos_x2F_technologies_x2F_java"> <g id="java-seeklogo.com" transform="translate(66.000000, 35.000000)"> <path id="Fill-1" class="st0" d="M49.3,77.8c0,0.4-0.9,0.9-1.2,1c-1.3,0.8-3.2,1.4-4.4,0.1c-1.2-1.2-0.9-3.4,0.4-4.1 c0.6-0.4,1.5-0.6,2.4-0.6c0.7-0.1,2.1-0.2,2.8-0.1L49.3,77.8z M40.4,66.5l0.5,2c0.9-0.2,1.4-0.5,2.7-0.8c1-0.2,2.1-0.3,3.2-0.2 c1.1,0.1,1.7,0.5,2.1,1.3c0.2,0.4,0.3,0.9,0.3,1.4l0,1.6c-0.1,0-3.3,0.2-3.7,0.3c-3.2,0.4-6.4,2.1-5.9,6.1 c0.3,2.5,1.7,3.6,4.2,3.9c1.4,0.2,2.3,0,3.4-0.5c0.5-0.2,0.9-0.4,1.3-0.7c0.5-0.3,1-0.8,1.1-0.9l0.3,1.7h2.6c0-0.5,0-6.8,0-7.5 c0-1.3,0-2.5,0-3.8c0-1.2-0.1-2.2-0.7-3.1c-1.8-2.8-5.6-2.6-8.7-1.9C42.5,65.6,40.9,66.1,40.4,66.5z"></path> <path id="Fill-2" class="st0" d="M80.6,78c-0.2,0.1-0.5,0.3-0.7,0.5c-0.7,0.5-1.6,1-2.6,1.1c-2.9,0.3-3.5-2.6-2.6-4.1 c1-1.6,4.1-1.5,6-1.5L80.6,78z M71.7,66.4c0,0.3,0.4,1.8,0.5,2c0.5-0.1,1.5-0.5,2.7-0.8c1.7-0.3,4.5-0.6,5.3,1.2 c0.3,0.7,0.6,2.8,0.3,3C80.5,72,79,72,78.7,72c-1.9,0.1-3.4,0.3-5,1.1c-1.7,0.9-3.1,2.4-2.8,5.2c0.3,2.5,1.7,3.6,4.2,3.9 c1.9,0.2,3.3-0.2,4.8-1.2c0.6-0.4,0.9-0.7,1.1-0.9l0.3,1.7l2.6,0V70.4c0-1.3-0.1-2.2-0.7-3.1c-1.7-2.7-5.6-2.6-8.7-1.9 C73.9,65.6,72.2,66.1,71.7,66.4z"></path> <path id="Fill-3" class="st0" d="M60.1,82.2l4.3,0c0.1,0,0.4-0.7,0.5-0.9c0.2-0.3,0.3-0.6,0.4-1c0.3-0.6,0.6-1.3,0.8-2 c1-2.8,1.9-5.8,2.6-8.7c0.2-0.7,1-4.1,1-4.6l-3.2,0c-0.7,0-0.4-0.1-0.6,1.3c-0.2,1.5-0.5,3-0.9,4.3c-0.3,1-2.1,7.5-2.5,7.9 l-0.9-3.5c-0.3-1.2-0.7-2.3-1-3.4l-1.6-5c-0.2-0.6-0.4-1.2-0.6-1.7l-3.8,0c0,0.3,2.5,8.1,2.7,8.6c0.5,1.5,0.9,2.8,1.4,4.3 C59.2,79.3,59.7,80.8,60.1,82.2"></path> <path id="Fill-4" class="st0" d="M33,64.5l0,14.2c0,2.6-0.9,5.7-3.5,6.5c0.2,0.3,1.3,1.5,1.6,2c0.9-0.2,2.2-1,2.7-1.5 c0.8-0.7,1.2-1.3,1.8-2.4c1.1-2.3,0.9-4.7,0.9-7.5c0-5.6,0-11.3,0-16.9c-0.4-0.1-2.8,0-3.5,0L33,64.5"></path> <path id="Fill-5" class="st0" d="M2.7,67l-1.1-1.7c-0.4-0.5-0.7-1.2-1-1.8c-0.6-1.1-1.3-2.5-1.7-3.9c-0.6-2.6,0.9-4.2,2.2-5.9 c0.2-0.3,0.4-0.5,0.7-0.7c1.4-1.5,3.3-3.4,4.8-4.9c1.5-1.6,2.4-3.3,2.6-5.8c0.1-1.3-0.1-4.1-1-4.6c0.3,2,0.3,3.3-0.4,5.3 c-0.9,2.3-2.3,3.7-4,5c-1.4,1.1-3.6,3.1-4.8,4.3c-0.8,0.8-2,2.1-2.6,3.4c-0.8,2,0,3.2,0.8,4.6c0.4,0.7,0.8,1.2,1.2,1.8 c0.5,0.7,0.9,1.1,1.3,1.7c0.4,0.6,0.9,1.1,1.4,1.6C1.6,65.8,2.5,66.8,2.7,67"></path> <path id="Fill-6" class="st1" d="M20.6,83.6c0.6,0.8,0,1.2-0.8,1.5C16.5,86.6,5,86.9,1.4,86.9c-3.6,0-7.3-0.1-10.8-0.7 c-0.6-0.1-3.1-0.5-3.2-1.1c-0.1-0.4,0.4-0.7,0.6-0.8c0.8-0.5,2.3-0.8,3.3-1c0.3,0,1-0.1,1.2-0.2c-1.7-0.2-7.1,0.6-8.3,2.2 c-0.7,1,0.5,1.4,1.3,1.7c3.1,0.9,9.6,1.1,13,1.2c5.1,0.1,17.4,0,21.9-2.8c0.3-0.2,0.8-0.5,0.8-0.8C21.4,84.1,20.9,83.7,20.6,83.6 "></path> <path id="Fill-7" class="st0" d="M6.1,69c0.6-0.2,2.2-1.5,2.6-1.9c0.6-0.6,1.6-1.7,1.7-2.9c0.1-1.1-0.7-2.6-1.2-3.3 c-1.6-2.3-2.8-3.6-0.7-6.1c0.7-0.8,1.5-1.5,2.4-2.2c1.1-0.9,2.8-2,4.1-2.8l1.4-0.9c-0.8,0.1-2.8,0.9-3.6,1.2 c-1.1,0.4-2.3,1-3.2,1.5c-3.2,1.8-6.3,4.6-5,8.4c0.9,2.6,3.4,4.2,3.2,6.1C7.6,67.2,6.4,68.4,6.1,69"></path> <path id="Fill-8" class="st1" d="M12.3,82.6c-1-0.3-1.7-0.7-2.5-1.2c-0.5-0.3-0.3-0.3-0.9-0.1c-2.6,0.6-6.8,0.6-9.5,0.5 c-0.7,0-2.7-0.1-3.1-0.7c-0.3-0.4,0.1-0.7,0.2-0.9c-1.8,0.3-3.6,1.7-1.1,2.9C-1.9,84.4,4,84.4,7,83.9 C7.9,83.7,11.9,82.9,12.3,82.6"></path> <path id="Fill-9" class="st1" d="M14.3,76.6c-0.8-0.2-1.4-0.6-1.9-1c-0.4-0.3-0.3-0.2-1.1-0.1c-3.1,0.5-12.5,1.3-15.2,0.3 c-0.3-0.1-0.7-0.3-0.8-0.7c0-0.5,0.4-0.7,0.6-0.9c-2.2,0.3-4.2,2.2-1.3,3.1c3.3,1,10.3,1.1,13.7,0.7C9.4,77.8,13.4,77,14.3,76.6"></path> <path id="Fill-10" class="st1" d="M15.3,69.2c-0.4,0-0.9,0.2-1.3,0.2c-0.5,0.1-0.9,0.1-1.4,0.2c-2.8,0.4-6,0.8-8.8,0.9 C1.6,70.7-6.7,71-8,69.7c-0.1-0.6,0.5-0.9,0.9-1.1c1.4-0.8,2.9-1.1,4.4-1.6c-1.9-0.2-6.8,1.3-8.6,2.5c-1.9,1.3,1.3,1.8,2.5,2 c7,1,13.5,0.5,20.4-0.6c1.1-0.2,1.4-0.1,2.1-0.6C14.2,70,14.8,69.6,15.3,69.2"></path> <path id="Fill-11" class="st1" d="M-8.9,90.6c1.9,0.8,6.1,1.3,8.3,1.5c3.1,0.2,6.4,0.2,9.5,0c4-0.3,8.6-0.7,12.1-2.5 c0.8-0.4,2.3-1.4,2.5-2.4c-0.2,0.1-0.5,0.3-0.7,0.5C16.6,91.9,2.5,91.5-4.7,91L-8.9,90.6"></path> <path id="Fill-12" class="st1" d="M16.6,67.9c1.6-0.5,3.5-0.2,4.5,0.7c1.1,1,1.1,2.8,0.3,4.2c-1.1,1.9-3.4,3.6-5.2,4.7 c-0.3,0.2-0.6,0.3-0.9,0.5c1.2-0.1,4.1-1.4,5.2-2c1.4-0.8,3-2,3.6-3.6c0.9-2.2-0.4-3.9-1.8-4.8c-0.8-0.5-1.8-0.7-3-0.7 C18.4,67.1,17,67.4,16.6,67.9"></path> </g> </g> </g> </svg> 