<?xml version="1.0" encoding="UTF-8"?> <svg xmlns="http://www.w3.org/2000/svg" id="Layer_1" data-name="Layer 1" viewBox="0 0 170 170"><defs><style>.cls-1{fill:#d33a33;}.cls-2{fill:#ef3f3b;}.cls-3{fill:#231f20;}.cls-4{fill:#f1d7b8;}.cls-5{fill:#345162;}.cls-6{fill:#6e6c6e;}.cls-7{fill:#dcd9d8;}.cls-8{fill:#f7e4ce;}.cls-9{fill:#49738c;}.cls-10{fill:#fff;}.cls-11{fill:none;stroke:#d33a33;stroke-width:2.16px;}.cls-12{fill:#82b1c4;}.cls-13{fill:#1d1919;}</style></defs><title>jenkins-icon</title><g id="g10"><g id="g3393"><path id="path22" class="cls-1" d="M114.1,83.5c0,16.43-13,29.76-29.1,29.76S55.9,99.93,55.9,83.5s13-29.77,29.1-29.77,29.1,13.33,29.1,29.77"></path><path id="path24" class="cls-2" d="M57.09,90.87S55,59.83,83.58,58.94l-2-3.32L66.07,60.83l-4.44,5.1-3.88,7.42L55.54,82l.66,5.76"></path><path id="path26" class="cls-3" d="M65.07,63.19a29.15,29.15,0,0,0-8.26,20.42h0A29.13,29.13,0,0,0,65.07,104h0A27.79,27.79,0,0,0,85,112.46h0A27.79,27.79,0,0,0,104.93,104h0a29.13,29.13,0,0,0,8.26-20.41h0a29.15,29.15,0,0,0-8.26-20.42h0A27.79,27.79,0,0,0,85,54.75h0a27.79,27.79,0,0,0-19.93,8.44Zm-1.29,42.09A30.89,30.89,0,0,1,55,83.61h0a30.91,30.91,0,0,1,8.78-21.68h0a29.58,29.58,0,0,1,21.22-9h0a29.58,29.58,0,0,1,21.22,9h0A30.91,30.91,0,0,1,115,83.61h0a30.89,30.89,0,0,1-8.78,21.67h0a29.58,29.58,0,0,1-21.22,9h0a29.58,29.58,0,0,1-21.22-9h0"></path><path id="path28" class="cls-4" d="M97.25,83.66l-4.44.67-6,.66L83,85.1,79.18,85,76.3,84.1l-2.55-2.77-2-5.65-.44-1.22-2.66-.89L67.1,71,66,67.37l1.22-3.22,2.88-1,2.33,1.11,1.11,2.44,1.33-.22.44-.55-.44-2.55-.11-3.22.66-4.43,0-2.53,2-3.24L81,47.42l6.21-2.66,6.87,1,6,4.33,2.77,4.43,1.77,3.21.45,8-1.33,6.88-2.44,6.09-2.33,3.22"></path><path id="path30" class="cls-5" d="M93.48,102.84l-15.85.66v2.66L79,115.47l-.67.78-11.08-3.77-.78-1.33L65.32,98.63l-2.54-7.54-.56-1.78,8.87-6.09,2.77-1.11,2.44,3L78.4,87l2.44.77,1.11.33,1.33,5.77,1,1.22,2.55-.89-1.77,3.44,9.64,4.54-1.22.67"></path><path id="path32" class="cls-6" d="M67.21,64.15l2.88-1,2.33,1.11,1.11,2.44,1.33-.22.33-1.33-.66-2.55.66-6.1-.55-3.32,2-2.33L81,47.42l-1.22-1.67-6.09,3-2.55,2-1.44,3.1-2.22,3-.66,3.54.44,3.77"></path><path id="path34" class="cls-7" d="M71.75,53.73s1.67-4.1,8.32-6.09.33-1.44.33-1.44L73.2,49l-2.78,2.77L69.2,54l2.55-.23"></path><path id="path36" class="cls-7" d="M68.43,63.38S66.1,55.62,75,54.51l-.33-1.33-6.1,1.44-1.77,5.76.44,3.77,1.22-.77"></path><path id="path38" class="cls-8" d="M72,73.69l1.45-1.41a.94.94,0,0,1,.76.85c.11.78.45,7.76,5.21,11.53.44.34-3.54-.56-3.54-.56l-3.55-5.54"></path><path id="path40" class="cls-8" d="M92.37,71.58s.26-3.36,1.16-3.1a1.24,1.24,0,0,1,.91,1.16s-2.2,1.42-2.07,1.94"></path><path id="path42" class="cls-8" d="M101.57,59.28s-1.83.38-2,2,2,.33,2.32.22"></path><path id="path44" class="cls-8" d="M88.16,59.39s-2.44.33-2.44,1.88,2.77,1.44,3.55.78"></path><path id="path46" class="cls-8" d="M73.08,66.59s-4.21-2.55-4.65-.11-1.44,4.21.66,6.76l-1.44-.44-1.33-3.44L65.88,66l2.55-2.66,2.88.22L73,64.93l.11,1.66"></path><path id="path48" class="cls-8" d="M75.08,59.61S77,49.85,86.5,48c7.84-1.55,12,.33,13.52,2.11,0,0-7-8.32-13.63-5.77S74.86,51.52,75,54.51a47.46,47.46,0,0,1,.11,5.1"></path><path id="path50" class="cls-8" d="M100.8,51.18s-3.22-.11-3.33,2.78a2.19,2.19,0,0,0,.22.88s2.55-2.88,4.1-1.33"></path><path id="path52" class="cls-8" d="M86.72,55.14s-.55-4.42-4.33-1.85c-2.43,1.66-2.21,4-1.77,4.43s.32,1.34.66.73.23-2.61,1.45-3.16,3.22-1.18,4-.15"></path><path id="path54" class="cls-9" d="M76.3,85.1,65.88,89.76s4.32,17.18,2.11,22.5l-1.56-.56-.11-6.54L63.44,92.75l-1.22-3.44L73.08,82l3.22,3.1"></path><path id="path56" class="cls-9" d="M77.37,94.6l1.48,1.81v6.65H77.07s-.22-4.66-.22-5.21.22-2.55.22-2.55"></path><path id="path58" class="cls-9" d="M77.41,104.06l-5,.22,1.44,1,3.55.55"></path><path id="path60" class="cls-5" d="M94.48,103l4.1-.11,1,10.2-4.22.55L94.48,103"></path><path id="path62" class="cls-5" d="M95.59,103l6.2-.33s2.55-6.43,2.55-6.77,2.22-9.31,2.22-9.31l-5-5.21-1-.88-2.66,2.66V93.42L95.59,103"></path><path id="path64" class="cls-9" d="M98.36,102.17l-3.88.78.55,3.1c1.44.67,3.88-1.11,3.88-1.11"></path><path id="path66" class="cls-9" d="M98.47,82.77l7.76,5.77.22-2.66-5.88-5.43-2.1,2.32"></path><path id="path68" class="cls-10" d="M81.25,124.79,79,115.47l-1.14-6.87-.19-5.1L88,103h6.46l-.59,11.64,1,9-.11,1.66-8.43.66-5.1-1.1"></path><path id="path70" class="cls-7" d="M93,102.84s-.56,11.53,1.1,19.73a21.25,21.25,0,0,1-8.2,2.66l9.31-.33,1.11-.67L95,106.05l-.33-3.88"></path><path id="path72" class="cls-10" d="M99.76,112.15l4.33-1.22,8.2-.44,1.22-3.77-2.22-6.54-2.55-.33L105.2,101l-3.41,1.67-1.8-.34-1.41.56"></path><path id="path74" class="cls-7" d="M99.69,109.93s2.88-1.33,3.32-1.22l-1.22-6.09,1.44-.56s1,5.77,1,6.43c0,0,6.21.33,6.76.33a10.09,10.09,0,0,0,1-5.21l1.22,3.55.11,2-1.77,2.66-2,.44-3.32-.11-1.11-1.44-3.88.55-1.22.44"></path><path id="path76" class="cls-10" d="M95.33,102.06l-2.44-6.2L90.34,92.2s.56-1.55,1.33-1.55h2.55l2.44.88-.22,4.1-1.11,6.43"></path><path id="path78" class="cls-7" d="M95.81,100s-3.11-6-3.11-6.88c0,0,.56-1.33,1.33-1s2.44,1.21,2.44,1.21V91.2l-3.77-.78-2.55.34L94.48,101l.88.11"></path><path id="path80" class="cls-10" d="M82.25,85.33,79.18,85,76.3,84.1v1l1.41,1.56,4.43,2"></path><path id="path82" class="cls-7" d="M77.3,85.66s3.43,1.44,4.54,1.11L82,88.09l-3.1-.66L77,86.1l.34-.44"></path><path id="path84" class="cls-1" d="M99.75,91a20.83,20.83,0,0,1-5.07-.7c.11-.61-.08-1.2.07-1.64a3.93,3.93,0,0,1,1.74-.37,3.11,3.11,0,0,0-1.93-.22,3.33,3.33,0,0,0-.32-1c1.05-.38,3.55-2.85,5-2,.67.39,1,2.61,1,3.69A3.76,3.76,0,0,1,99.75,91"></path><path id="path86" class="cls-11" d="M99.75,91a20.83,20.83,0,0,1-5.07-.7c.11-.61-.08-1.2.07-1.64a3.93,3.93,0,0,1,1.74-.37,3.11,3.11,0,0,0-1.93-.22,3.33,3.33,0,0,0-.32-1c1.05-.38,3.55-2.85,5-2,.67.39,1,2.61,1,3.69A3.76,3.76,0,0,1,99.75,91Z"></path><path id="path88" class="cls-1" d="M90.76,88c0,.14,0,.28,0,.43-.59.38-1.53.38-2.18.7a5.56,5.56,0,0,1,2.35.6c0,.35,0,.71,0,1.07a37.68,37.68,0,0,1-3.33,2.53,9.08,9.08,0,0,1-3.34,1c-.36-.09-.39-.54-.54-1a13.44,13.44,0,0,1-1.07-3.7c-.08-1.72-.26-4.6,1.59-4.24A16.29,16.29,0,0,1,88.57,87a4.5,4.5,0,0,0,2.19,1"></path><path id="path90" class="cls-11" d="M90.76,88c0,.14,0,.28,0,.43-.59.38-1.53.38-2.18.7a5.56,5.56,0,0,1,2.35.6c0,.35,0,.71,0,1.07a37.68,37.68,0,0,1-3.33,2.53,9.08,9.08,0,0,1-3.34,1c-.36-.09-.39-.54-.54-1a13.44,13.44,0,0,1-1.07-3.7c-.08-1.72-.26-4.6,1.59-4.24A16.29,16.29,0,0,1,88.57,87,4.5,4.5,0,0,0,90.76,88Z"></path><path id="path92" class="cls-1" d="M91.83,90a6,6,0,0,1-.28-2c2.49-1.67,3,2.86.28,2"></path><path id="path94" class="cls-11" d="M91.83,90a6,6,0,0,1-.28-2C94,86.31,94.51,90.84,91.83,90Z"></path><path id="path96" class="cls-2" d="M95.44,90.76s-.77-1.11-.22-1.44,1.11,0,1.44-.56,0-.89.11-1.55.67-.78,1.22-.89,2.11-.33,2.33.22l-.67-2-1.33-.44-4.21,2.43-.22,1.22V90.2"></path><path id="path98" class="cls-2" d="M83.8,94.41c-.13-1.73-.27-3.45-.43-5.18-.23-2.58.62-2.13,2.86-2.13a6.07,6.07,0,0,1,2.23.66c.6,1.24-1,1,.69,1.9,1.45.78,4-.48,3.41-2.23-.33-.39-1.7-.12-2.19-.37l-2.6-1.35c-1.1-.57-3.65-1.41-4.82-.61-3,2,.19,7.08,1.25,9.2"></path><path id="path100" class="cls-3" d="M86.72,55.14c-3-.7-4.52,1.27-5.44,3.31-.82-.2-.49-1.31-.28-1.88.54-1.49,2.72-3.47,4.5-3.2.76.12,1.8.82,1.22,1.77"></path><path id="path102" class="cls-3" d="M101.44,58.58h.14a32,32,0,0,0,2.14,4.17c-.58,1.34-4.37,2.53-4.31.12.82-.36,2.23-.07,3-.53a8.19,8.19,0,0,1-.93-3.77"></path><path id="path104" class="cls-3" d="M88.27,58.62c.64,1.19.86,2.43,1.78,3.33.41.41,1.22.9.82,2a2.55,2.55,0,0,1-1.17,1c-1.44.43-4.8.09-3.66-1.7,1.19,0,2.79.77,3.68-.09-.68-1.1-1.9-3.26-1.45-4.53"></path><path id="path106" class="cls-3" d="M100.9,70.69c-2.17,1.39-4.58,2.9-8.14,2.55a2.41,2.41,0,0,1-.31-3.09c.39.66.15,1.87,1.21,2,2,.35,4.37-1.23,5.81-1.78.9-1.52-.07-2.08-.88-3-1.66-2-3.88-4.48-3.8-7.47.67-.48.72.74.82,1a28,28,0,0,0,4.63,6.35c.4.43,1,.84,1.11,1.12.21.82-.54,1.8-.45,2.35"></path><path id="path108" class="cls-3" d="M72.33,69.22c-.68-.39-.85-2.09-1.64-2.14-1.14-.07-.94,2.21-.93,3.55-.79-.71-.92-2.91-.35-4-.65-.32-1,.35-1.31.59.47-3.4,5-1.57,4.23,2"></path><path id="path110" class="cls-3" d="M102.28,72.1c-1,1.93-2.44,4-5.4,4.1a7.3,7.3,0,0,1,0-1.94c2.26-.21,3.66-1.37,5.39-2.16"></path><path id="path112" class="cls-3" d="M88.1,73.35c1.88,1,5.35,1.1,7.92,1a8.61,8.61,0,0,1,.14,1.95c-3.3.16-7.2-.65-8.06-3"></path><path id="path114" class="cls-3" d="M87.74,75.2c1.3,3.28,5.79,2.9,9.57,2.81a2,2,0,0,1-1,1.11c-1.21.5-4.56.87-6.24,0a8.41,8.41,0,0,1-2.34-2.61c-.28-.36-1.69-1.29,0-1.29"></path><path id="path116" class="cls-12" d="M100.74,93.29a67.5,67.5,0,0,1-4.81,7.63,37.12,37.12,0,0,0,1.2-8.85,2.78,2.78,0,0,1,3.61,1.22"></path><path id="path118" class="cls-3" d="M109,102.72c-1.72.34-2.92,2-4.6,1.9.92-1.3,2.53-1.84,4.6-1.9"></path><path id="path120" class="cls-3" d="M109.74,105.4a24.52,24.52,0,0,1-4.45.26c.67-1,3.25-.67,4.45-.26"></path><path id="path122" class="cls-3" d="M110.23,107.72c-1.57,0-3.53,0-5-.13.88-.94,4-.35,5,.13"></path><path id="path124" class="cls-7" d="M97.78,114.05c.23,2,1,4,.91,6.14a6.27,6.27,0,0,1-2.53.54c-.08-1.83-.33-4.64-.25-6.39.57,0,1.41-.41,1.87-.29"></path><path id="path126" class="cls-4" d="M95.25,85c-.79.52-1.46,1.16-2.22,1.71a4.83,4.83,0,0,1-3.83-1.08c0-.08.14,0,.15-.14,1.8.8,4.08-.32,5.9-.49"></path><path id="path128" class="cls-12" d="M85.81,97.23C86.3,95.09,88.24,94,90,92.8c1.81,2.3,2.92,5.26,4.13,8.12a42.09,42.09,0,0,1-8.32-3.69"></path><path id="path130" class="cls-3" d="M95.91,114.34c-.08,1.75.17,4.56.25,6.39a6.27,6.27,0,0,0,2.53-.54c.1-2.17-.68-4.16-.91-6.14C97.32,113.93,96.48,114.38,95.91,114.34Zm-18.13-10a91.62,91.62,0,0,0,3.92,19.24,25.53,25.53,0,0,0,14,.25c-.73-3.52-.41-7.82-.84-11.58-.32-2.83-.16-5.68-.6-8.57C89.39,102.72,82.54,103.49,77.78,104.38Zm17.6-.61c0,3,.14,6,.37,9,1.16-.17,2-.29,3-.52-.36-2.93-.31-6.21-1-8.8A7.21,7.21,0,0,0,95.38,103.77Zm5.91-.49a7.15,7.15,0,0,0-1.73,0c.25,2.47.85,5.19,1.07,7.79a7.42,7.42,0,0,0,2-.5C102.62,108.3,102.38,105.17,101.29,103.28Zm8.94,8.17c1.73-.42,2.82-2.54,2.33-4.72-.32-1.46-.9-4.22-1.52-5.15-.46-.7-1.7-1.6-2.69-1-1.61,1-4.45,1.33-5.62,2.58a42.43,42.43,0,0,1,1,7.15c2,.12,4.49-.56,6.17.16-1.17.38-2.69.38-3.7.94A7.88,7.88,0,0,0,110.23,111.45Zm-16.1-10.53C92.92,98.06,91.81,95.1,90,92.8c-1.76,1.18-3.7,2.29-4.19,4.43A42.09,42.09,0,0,0,94.13,100.92Zm3-8.85a37.12,37.12,0,0,1-1.2,8.85,67.5,67.5,0,0,0,4.81-7.63A2.78,2.78,0,0,0,97.13,92.07Zm-3.4-1.21c-.69-.07-1.27.79-2.17.42-.2.23-.39.47-.6.69,2,2.39,2.88,5.77,4.41,8.57.82-2.69.72-5.64.9-8.58C95.15,92,94.52,91,93.73,90.86ZM91.55,88a6,6,0,0,0,.28,2C94.51,90.84,94,86.31,91.55,88Zm-3-1a16.29,16.29,0,0,0-4.39-1.6c-1.85-.36-1.67,2.52-1.59,4.24a13.44,13.44,0,0,0,1.07,3.7c.15.42.18.87.54,1a9.08,9.08,0,0,0,3.34-1,37.68,37.68,0,0,0,3.33-2.53c0-.36,0-.72,0-1.07a5.56,5.56,0,0,0-2.35-.6c.65-.32,1.59-.32,2.18-.7,0-.15,0-.29,0-.43A4.5,4.5,0,0,1,88.57,87Zm-11-2c-1,1,2.69,2.3,3.85,2.37,0-.62.35-1.2.28-1.64C80.28,85.49,78.46,85.65,77.53,85Zm11.82.45c0,.1-.13.06-.15.14A4.83,4.83,0,0,0,93,86.67c.76-.55,1.43-1.19,2.22-1.71C93.43,85.13,91.15,86.25,89.35,85.45Zm10.85,3.29c0-1.08-.34-3.3-1-3.69-1.4-.82-3.9,1.65-5,2a3.33,3.33,0,0,1,.32,1,3.11,3.11,0,0,1,1.93.22,3.93,3.93,0,0,0-1.74.37c-.15.44,0,1-.07,1.64a20.83,20.83,0,0,0,5.07.7A3.76,3.76,0,0,0,100.2,88.74Zm-24.29-2.8c-.3-.22-2.34-2.87-2.62-2.76a43.94,43.94,0,0,0-10.22,6.35c2.94,6.31,4.13,14,4.34,21.48,3.36,1.57,6.32,3.84,10.89,4.08-.53-3.74-1-7.08-1.31-10.6-1.15-.48-2.8,0-3.87-.15,0-1.29,1.64-.56,1.78-1.44.1-.65-.91-.7-.58-1.74.84.3,1.28,1,2.17,1.23.82-1.79,0-5,.11-6.45,0-.28.14-1.56.77-1.34s0,3.4,0,4.81-.16,2.57.37,3.39a126,126,0,0,1,13.68-1.12A33.42,33.42,0,0,1,87.78,100c-.74-.42-3.08-1.29-3.3-2-.34-1.13.9-1.72,1.11-2.69-2.23,1.22-2.66-1.16-3.19-2.85A20.88,20.88,0,0,1,81.54,89a38.16,38.16,0,0,1-5.63-3ZM98.25,83.5c3.07-1.49,3.63,5.57,2.42,7.85.19.67.83.93,1.09,1.54-1.71,3.08-3.62,5.94-5.37,9,1.3-.81,3.16-.14,4.69-.75.56-.22,1-1.5,1.39-2.53a55.2,55.2,0,0,0,2.94-9.07,11.32,11.32,0,0,0,.38-2.5c-.13-1-1.46-1.7-2.13-2.3-1.25-1.12-2-2.1-3.33-3.15C99.81,82.35,98.68,82.87,98.25,83.5ZM68.88,56.24c-1.46,1.62-1.16,4.64-1,6.78,2.65-1.66,6.16.14,6.13,3,1.26,0,.47-1.58.24-2.58-.74-3.25,1.26-6.78.09-9.75A8.06,8.06,0,0,0,68.88,56.24Zm10.48-9.35c-3.31.94-7.56,3.35-8.93,6.33,1.06-.15,1.79-.69,2.83-.75a7.56,7.56,0,0,0,1.36.05c.9-.22,1.66-2.24,2.34-3s1.46-1.05,2-1.72c.35-.17.86-.16.88-.68C79.7,47,79.54,46.84,79.36,46.89Zm17.26.89c-3.44-2-9.27-3.41-12.93-1.58-3,1.47-6.94,3.91-8.3,7,1.27,3-.38,5.71-.49,8.73-.05,1.61.76,3,.82,4.77-.43.72-1.76.81-2.68.76-.31-1.55-.85-3.3-2.45-3.47a3.7,3.7,0,0,0-4,3.57c-.12,2.3,1.76,6.11,4.44,5.85,1-.11,1.28-1.14,2.41-1.13.61,1.22-.94,1.6-1.1,2.47a7.61,7.61,0,0,0,.22,1.51,20.56,20.56,0,0,0,2.64,6.13c1.35,1.94,4,2.23,6.86,2.42.52-1.1,2.4-1,3.62-.72a12,12,0,0,1-4-3.24c-1.3-1.43-2.62-3-2.69-4.84,2.46,3.41,4.49,6.38,9,7.88,3.38,1.14,7.33-.52,9.93-2.34a11.45,11.45,0,0,0,2.48-3.06c2.87-4.12,4.2-10,3.91-15.71-.12-2.35-.11-4.69-.9-6.27s-3.62-3.14-5.25-1.64c-.3-1.61,1.36-2.61,3.31-2-1.39-1.79-2.85-4-4.83-5.06ZM103,100.84c2.69-1.34,7.72-3.6,9.4,0a31.74,31.74,0,0,1,1.68,5c.45,1.93-.5,6-2.49,6.65a11.89,11.89,0,0,1-5.92.11,3.53,3.53,0,0,1-.72-1,8.13,8.13,0,0,0-4.11.71c.11,1.11-.65,1.29-1.35,1.52-.53,2.08,1,4.8.67,6.7-.27,1.35-1.93,1.56-3.16,1.82a10.63,10.63,0,0,0,.14,2c-.28,1-1.53,1.62-2.72,1.76-3.91.47-9.85.68-13.61-.67-1-2.57-1.88-5.71-2.75-8.64-3.67.39-6.64-1.59-9.43-2.88-1-.45-2.31-.7-2.67-1.47s-.21-2.17-.3-3.53a53.63,53.63,0,0,0-1.32-10.31c-.41-1.58-1.12-3-1.62-4.51a32.86,32.86,0,0,1-1.47-4.58c-.31-2.09,1.66-2.21,2.92-3.11C66.14,85,67.67,84.24,69.78,83c.63-.37,2.51-1.32,2.73-1.76.42-.86-.73-2.08-1-2.76a8.37,8.37,0,0,1-.82-3,5.86,5.86,0,0,1-3.92-2.52c-1.34-2-2.27-5.6-1.11-8.37.09-.21.54-.64.61-1A11.69,11.69,0,0,0,66,61.3c-.12-3.6.61-6.69,3-7.78,1-3.91,4.5-5.21,7.81-7.16a25.32,25.32,0,0,1,4-1.71c5.06-1.86,12.82-1.51,17,1.67a22.89,22.89,0,0,1,5.64,6.24c2.68,5.43,2.49,14.51.61,21.12A21.22,21.22,0,0,1,103,76.94c-.35.74-1.46,2.23-1.33,2.89s2.53,2.49,3,3c.93.89,2.68,2.07,2.82,3.19s-.53,2.83-.87,4c-1.15,3.85-2.27,7.4-3.58,10.84"></path><path id="path132" class="cls-8" d="M85.09,74.19c.15-.2,1-.49,2.07,0,0,0-1.33.22-1.22,2.44l-.55-.11s-.58-2-.3-2.38"></path><path id="path134" class="cls-13" d="M94.81,93.25a.61.61,0,1,1-.61-.61.61.61,0,0,1,.61.61"></path><path id="path136" class="cls-13" d="M95.42,96.08a.61.61,0,0,1-1.22,0,.61.61,0,0,1,1.22,0"></path></g></g></svg> 