<?xml version="1.0" encoding="UTF-8"?> <svg xmlns="http://www.w3.org/2000/svg" id="Layer_1" data-name="Layer 1" viewBox="0 0 170 170"><defs><style>.cls-1{fill:#486bb3;}.cls-2{fill:#fff;stroke:#fff;stroke-width:0.31px;}</style></defs><title>kubernetes-icon</title><g id="layer1"><g id="g3052"><path id="path3055" class="cls-1" d="M84.73,41.19a5.26,5.26,0,0,0-2.06.55L54.83,55A5.31,5.31,0,0,0,52,58.61L45.14,88.43a5.22,5.22,0,0,0,.72,4.07l.3.42,19.25,23.93a5.33,5.33,0,0,0,4.16,2h30.87a5.32,5.32,0,0,0,4.16-2l19.24-23.94a5.24,5.24,0,0,0,1-4.46L118,58.58A5.3,5.3,0,0,0,115.12,55L87.31,41.74A5.25,5.25,0,0,0,84.73,41.19Z"></path><path id="path3059" class="cls-2" d="M85,51.35a1.76,1.76,0,0,0-1.63,1.85v.47a12.18,12.18,0,0,0,.23,1.59,16.06,16.06,0,0,1,.16,3,1.88,1.88,0,0,1-.55.86l0,.71a21.65,21.65,0,0,0-3,.46,21.43,21.43,0,0,0-10.89,6.21l-.6-.42a1.33,1.33,0,0,1-1-.1,15,15,0,0,1-2.25-2,14.83,14.83,0,0,0-1.09-1.16c-.1-.09-.26-.21-.37-.29a2,2,0,0,0-1.16-.44,1.57,1.57,0,0,0-1.32.59,1.75,1.75,0,0,0,.41,2.46h0l.34.27a11.87,11.87,0,0,0,1.38.81,14.77,14.77,0,0,1,2.49,1.73,1.83,1.83,0,0,1,.34,1l.54.47a21.55,21.55,0,0,0-3.39,15l-.7.2a2.25,2.25,0,0,1-.72.72,15,15,0,0,1-3,.49,12.18,12.18,0,0,0-1.6.13l-.44.1h0a1.67,1.67,0,1,0,.44,3.31,1.09,1.09,0,0,0,.3-.07h0l.46,0a14,14,0,0,0,1.49-.54,15.42,15.42,0,0,1,2.91-.85,1.82,1.82,0,0,1,1,.34l.73-.13a21.68,21.68,0,0,0,9.6,12l-.31.64a1.68,1.68,0,0,1,.15.94,15.71,15.71,0,0,1-1.51,2.72,14.82,14.82,0,0,0-.89,1.34c-.07.12-.15.31-.21.44a1.67,1.67,0,1,0,2.88,1.69,1.23,1.23,0,0,0,.12-.26h0a4.25,4.25,0,0,0,.21-.43A13.57,13.57,0,0,0,75,105.6a11.85,11.85,0,0,1,1.29-3,1.49,1.49,0,0,1,.71-.35l.38-.68a21.54,21.54,0,0,0,15.37,0l.33.64a1.33,1.33,0,0,1,.85.51,15.81,15.81,0,0,1,1.14,2.8,13.62,13.62,0,0,0,.49,1.53c0,.13.14.29.2.43a1.68,1.68,0,0,0,3.14-1.17,2.1,2.1,0,0,0-.13-.26c-.06-.13-.15-.32-.22-.45a13.25,13.25,0,0,0-.89-1.32,15.91,15.91,0,0,1-1.48-2.64,1.29,1.29,0,0,1,.17-1A6.26,6.26,0,0,1,96,100,21.69,21.69,0,0,0,105.59,88l.71.13a1.36,1.36,0,0,1,.94-.35,15.57,15.57,0,0,1,2.9.86,13.59,13.59,0,0,0,1.5.57c.12,0,.29.06.43.1h0a1.67,1.67,0,0,0,1-3.18,1.59,1.59,0,0,0-.3-.06l-.48-.12a14.35,14.35,0,0,0-1.6-.12,16,16,0,0,1-3-.5,1.78,1.78,0,0,1-.72-.72l-.67-.19a21.65,21.65,0,0,0-3.47-15l.59-.54a1.36,1.36,0,0,1,.31-.95,15.79,15.79,0,0,1,2.48-1.74,11.87,11.87,0,0,0,1.38-.81l.37-.29a1.68,1.68,0,0,0-1.77-2.85,1.79,1.79,0,0,0-.31.25l-.37.29c-.38.37-.75.76-1.09,1.16A15.16,15.16,0,0,1,102.32,66a1.84,1.84,0,0,1-1,.11l-.64.45a21.82,21.82,0,0,0-13.83-6.67c0-.23,0-.62,0-.74a1.38,1.38,0,0,1-.55-.83,16.08,16.08,0,0,1,.19-3,12.18,12.18,0,0,0,.23-1.59v-.47A1.76,1.76,0,0,0,85,51.36h0ZM82.92,64.27,82.42,73h0a1.47,1.47,0,0,1-1.53,1.41,1.58,1.58,0,0,1-.8-.28h0l-7.16-5.08a16.57,16.57,0,0,1,10-4.78Zm4.17,0a17.27,17.27,0,0,1,10,4.81l-7.09,5h0a1.48,1.48,0,0,1-2.07-.23,1.45,1.45,0,0,1-.32-.9h0Zm-16.8,8.07,6.55,5.84v0A1.47,1.47,0,0,1,77,80.29a1.41,1.41,0,0,1-.72.45v0l-8.41,2.42A17.14,17.14,0,0,1,70.29,72.34Zm29.38,0a17.46,17.46,0,0,1,2.51,10.81l-8.42-2.42v0a1.46,1.46,0,0,1-.58-2.52h0l6.5-5.82h0Zm-16,6.29h2.68L88,80.71l-.6,2.6L85,84.47l-2.42-1.16L82,80.71Zm8.59,7.1a1.93,1.93,0,0,1,.34,0h0l8.66,1.46a17.12,17.12,0,0,1-6.93,8.74L91,87.82h0a1.49,1.49,0,0,1,.79-1.94,1.59,1.59,0,0,1,.49-.11h0Zm-14.56,0a1.46,1.46,0,0,1,1.44,1.49,1.55,1.55,0,0,1-.11.56v0l-3.33,8a17.21,17.21,0,0,1-6.9-8.64l8.59-1.45h.29ZM85,89.29a1.49,1.49,0,0,1,1.34.77h0l4.24,7.65c-.56.18-1.12.34-1.69.47a17.28,17.28,0,0,1-9.4-.48l4.23-7.65h0A1.46,1.46,0,0,1,85,89.32Z"></path></g></g></svg> 