<?xml version="1.0" encoding="UTF-8"?> <!-- Generator: Adobe Illustrator 22.1.0, SVG Export Plug-In . SVG Version: 6.00 Build 0) --> <svg xmlns="http://www.w3.org/2000/svg" xmlns:xlink="http://www.w3.org/1999/xlink" version="1.1" id="Layer_1" x="0px" y="0px" viewBox="0 0 200 200" style="enable-background:new 0 0 200 200;" xml:space="preserve"> <style type="text/css"> .st0{fill:url(#SVGID_1_);} .st1{fill:url(#SVGID_2_);} .st2{fill:#14559A;} .st3{fill:url(#SVGID_3_);} .st4{fill:#3092C4;} .st5{fill:#1969BC;} .st6{fill:url(#SVGID_4_);} .st7{fill:url(#SVGID_5_);} .st8{fill:url(#SVGID_6_);} .st9{fill:#2B74B1;} .st10{fill:#125A9E;} .st11{fill:url(#SVGID_7_);} .st12{fill:url(#SVGID_8_);} .st13{fill:#0D82CA;} .st14{fill:url(#SVGID_9_);} .st15{fill:#127BCA;} .st16{fill:url(#SVGID_10_);} .st17{fill:url(#SVGID_11_);} .st18{fill:#05A1E6;} .st19{fill:url(#SVGID_12_);} .st20{fill:url(#SVGID_13_);} .st21{fill:url(#SVGID_14_);} .st22{fill:#079AE1;} .st23{fill:#1E5CB3;} .st24{fill:#1D60B5;} .st25{fill:#175FAB;} .st26{fill:url(#SVGID_15_);} .st27{fill:#7DCBEC;} .st28{fill:#5EC5ED;} .st29{fill:url(#SVGID_16_);} .st30{fill:url(#SVGID_17_);} .st31{fill:url(#SVGID_18_);} </style> <g> <g transform="translate(26.734177, 116.658228)"> <path d="M100.8-14.5c0-0.2,0-0.2-0.1-0.3c-0.1-0.1-0.2-0.1-0.4-0.1H100v0.8h0.3C100.7-14.1,100.8-14.3,100.8-14.5L100.8-14.5z M101.3-12.8h-0.4l-0.2-0.6c-0.2-0.3-0.2-0.4-0.4-0.4H100v1h-0.3v-2.4h0.6c0.3,0,0.5,0.1,0.6,0.2c0.2,0.1,0.2,0.2,0.2,0.5 c0,0.2-0.1,0.3-0.2,0.4c-0.1,0.1-0.2,0.2-0.4,0.2l0,0c0.2,0,0.2,0.2,0.4,0.4L101.3-12.8L101.3-12.8z M102-14 c0-0.5-0.2-0.9-0.5-1.2c-0.3-0.3-0.7-0.5-1.1-0.5c-0.5,0-0.9,0.2-1.2,0.5c-0.3,0.3-0.5,0.7-0.5,1.2c0,0.5,0.2,0.9,0.5,1.2 c0.3,0.3,0.7,0.5,1.1,0.5c0.5,0,0.8-0.2,1.1-0.5C101.9-13.2,102-13.6,102-14L102-14z M102.3-14.1c0,0.5-0.2,1-0.6,1.3 c-0.3,0.3-0.8,0.6-1.4,0.6s-1-0.2-1.3-0.5s-0.6-0.8-0.6-1.3c0-0.5,0.2-1,0.6-1.3c0.3-0.3,0.8-0.6,1.4-0.6c0.5,0,1,0.2,1.3,0.5 C102-15,102.3-14.5,102.3-14.1L102.3-14.1z"></path> <path d="M51.3-7.4h-1.1v-6.6c0-0.5,0-1.1,0.1-1.9l0,0c-0.1,0.4-0.2,0.7-0.3,1l-3.3,7.5H46l-3.4-7.4c-0.1-0.2-0.2-0.6-0.3-1l0,0 c0,0.4,0.1,1.1,0.1,1.9v6.6h-1.1v-9.8h1.5l3,6.9C46-9.8,46.2-9.4,46.3-9h0.1c0.2-0.6,0.3-1,0.5-1.2l3.1-6.8h1.5L51.3-7.4L51.3-7.4 z"></path> <path d="M54.8-7.4h-1.1v-7.1h1.1V-7.4L54.8-7.4z M55-16.9c0,0.2-0.1,0.4-0.2,0.5c-0.2,0.2-0.3,0.2-0.5,0.2s-0.4-0.1-0.5-0.2 c-0.2-0.2-0.2-0.3-0.2-0.6s0.1-0.4,0.2-0.5c0.2-0.2,0.3-0.2,0.5-0.2c0.2,0,0.4,0.1,0.5,0.2C54.9-17.3,55-17.1,55-16.9L55-16.9z"></path> <path d="M61.8-7.7c-0.6,0.3-1.2,0.5-1.9,0.5c-1,0-1.8-0.3-2.4-1c-0.6-0.6-0.9-1.5-0.9-2.5c0-1.1,0.3-2.1,1-2.8 c0.6-0.7,1.5-1.1,2.7-1.1c0.6,0,1.1,0.1,1.6,0.3v1.1c-0.5-0.4-1.1-0.6-1.7-0.6c-0.7,0-1.3,0.2-1.8,0.7s-0.7,1.2-0.7,2 c0,0.8,0.2,1.5,0.6,1.9c0.6,0.6,1.1,0.8,1.9,0.8c0.6,0,1.2-0.2,1.7-0.6V-7.7L61.8-7.7z"></path> <path d="M67.2-13.2c-0.2-0.2-0.5-0.2-0.9-0.2c-0.5,0-0.8,0.2-1.1,0.6c-0.3,0.5-0.6,1.1-0.6,1.9v3.6h-1.1v-7.1h1.1v1.5l0,0 c0.2-0.5,0.4-0.9,0.7-1.2c0.3-0.2,0.6-0.4,1.1-0.4c0.3,0,0.5,0,0.6,0.1L67.2-13.2L67.2-13.2z"></path> <path d="M73.5-10.9c0-0.9-0.2-1.6-0.6-2c-0.4-0.5-1-0.6-1.6-0.6c-0.7,0-1.3,0.2-1.7,0.6c-0.4,0.5-0.6,1.2-0.6,2.1 c0,0.8,0.2,1.5,0.6,1.9c0.4,0.5,1,0.7,1.7,0.7c0.7,0,1.3-0.2,1.7-0.7C73.3-9.4,73.5-10,73.5-10.9 M74.6-10.9c0,1.1-0.3,2-1,2.7 c-0.6,0.6-1.5,1.1-2.5,1.1c-1.1,0-1.9-0.3-2.5-1.1c-0.6-0.6-0.9-1.5-0.9-2.6c0-1.2,0.3-2.2,1.1-2.8c0.6-0.6,1.5-1,2.5-1 s1.9,0.3,2.4,1C74.4-12.9,74.6-12,74.6-10.9"></path> <path d="M80.2-9.3c0,0.6-0.2,1.1-0.6,1.5c-0.5,0.4-1.1,0.6-1.9,0.6c-0.6,0-1.2-0.2-1.8-0.4v-1.2c0.6,0.5,1.1,0.6,1.9,0.6 c0.9,0,1.4-0.3,1.4-1c0-0.2-0.1-0.5-0.3-0.6c-0.2-0.2-0.6-0.4-1.1-0.6s-1-0.5-1.2-0.8c-0.3-0.3-0.5-0.7-0.5-1.3s0.2-1.1,0.7-1.5 c0.5-0.4,1.1-0.6,1.8-0.6c0.6,0,1.1,0.1,1.5,0.3v1.1c-0.5-0.3-1-0.5-1.6-0.5c-0.4,0-0.6,0.1-0.9,0.2c-0.2,0.2-0.3,0.4-0.3,0.7 s0.1,0.6,0.2,0.7c0.2,0.2,0.5,0.3,1.1,0.6s1.1,0.5,1.3,0.8C80.1-10.2,80.2-9.8,80.2-9.3"></path> <path d="M87.1-10.9c0-0.9-0.2-1.6-0.6-2c-0.4-0.5-1-0.6-1.6-0.6c-0.7,0-1.3,0.2-1.7,0.6c-0.4,0.5-0.6,1.2-0.6,2.1 c0,0.8,0.2,1.5,0.6,1.9c0.4,0.5,1,0.7,1.7,0.7c0.7,0,1.3-0.2,1.7-0.7C87-9.4,87.1-10,87.1-10.9 M88.2-10.9c0,1.1-0.3,2-1,2.7 s-1.5,1.1-2.5,1.1s-1.9-0.3-2.5-1.1c-0.6-0.6-0.9-1.5-0.9-2.6c0-1.2,0.3-2.2,1.1-2.8c0.6-0.6,1.5-1,2.6-1c1.1,0,1.9,0.3,2.4,1 C88-12.9,88.2-12,88.2-10.9"></path> <path d="M93.3-16.8C93-17,92.8-17,92.5-17c-0.8,0-1.2,0.5-1.2,1.5v1.1h1.6v1h-1.6v6.1h-1.1v-6.1H89v-1h1.2v-1.1 c0-0.8,0.2-1.4,0.7-1.8c0.4-0.4,0.9-0.6,1.5-0.6c0.3,0,0.6,0.1,0.8,0.2V-16.8L93.3-16.8z"></path> <path d="M97.7-7.4c-0.2,0.2-0.6,0.2-1.1,0.2c-1.2,0-1.9-0.7-1.9-2.1v-4.1h-1.2v-1h1.2v-1.7c0.3-0.1,0.7-0.2,1.1-0.3v2.1h1.8v1 h-1.8v4c0,0.5,0.1,0.8,0.2,1c0.2,0.2,0.4,0.3,0.8,0.3c0.2,0,0.5-0.1,0.7-0.2V-7.4L97.7-7.4z"></path> </g> <g transform="translate(0.000000, 160.405063)"> <path d="M63.6-23.6c0,0.6-0.2,1.1-0.6,1.5c-0.4,0.4-0.9,0.6-1.5,0.6s-1.1-0.2-1.4-0.6c-0.4-0.5-0.6-1-0.6-1.5 c0-0.6,0.2-1.1,0.6-1.5c0.4-0.4,0.9-0.6,1.4-0.6c0.6,0,1.1,0.2,1.5,0.6C63.4-24.7,63.6-24.2,63.6-23.6"></path> <path d="M88.8-22h-3.6L71.7-42.6c-0.3-0.5-0.6-1.1-0.8-1.6h-0.1c0.1,0.6,0.2,1.7,0.2,3.6V-22h-3v-25.9h3.9l12.9,20.3 c0.5,0.8,0.9,1.4,1.1,1.7h0.1c-0.1-0.7-0.2-2-0.2-3.8v-18.2h3V-22L88.8-22z"></path> <path d="M108.1-22H94.4v-25.9h13.1v2.8h-10v8.6h9.3v2.8h-9.3v9h10.6V-22L108.1-22z"></path> <path d="M128.9-45.1h-7.5V-22h-3v-23.1H111v-2.8h17.9L128.9-45.1L128.9-45.1z"></path> </g> <g transform="translate(0.810127, 0.000000)"> <linearGradient id="SVGID_1_" gradientUnits="userSpaceOnUse" x1="-402.5063" y1="7.8004" x2="-402.5063" y2="8.2755" gradientTransform="matrix(45.6076 0 0 81.335 18451.5137 -572.6196)"> <stop offset="0" style="stop-color:#0994DC"></stop> <stop offset="0.35" style="stop-color:#66CEF5"></stop> <stop offset="0.35" style="stop-color:#66CEF5"></stop> <stop offset="0.8462" style="stop-color:#127BCA"></stop> <stop offset="0.8462" style="stop-color:#127BCA"></stop> <stop offset="1" style="stop-color:#127BCA"></stop> </linearGradient> <path class="st0" d="M86.9,67.9c2.9,8.9,4.1,24.9,12.6,24.9l0,0c0.6,0,1.3-0.1,1.9-0.2l0,0C93.6,90.9,92.7,75.1,88,67l0,0 C87.6,67.2,87.3,67.5,86.9,67.9"></path> <linearGradient id="SVGID_2_" gradientUnits="userSpaceOnUse" x1="-402.9783" y1="7.6267" x2="-402.9783" y2="8.1019" gradientTransform="matrix(47.8692 0 0 83.4083 19385.916 -575.3013)"> <stop offset="0" style="stop-color:#0E76BC"></stop> <stop offset="0.36" style="stop-color:#36AEE8"></stop> <stop offset="0.36" style="stop-color:#36AEE8"></stop> <stop offset="0.8462" style="stop-color:#00ADEF"></stop> <stop offset="0.8462" style="stop-color:#00ADEF"></stop> <stop offset="1" style="stop-color:#00ADEF"></stop> </linearGradient> <path class="st1" d="M88,66.9c4.7,8.2,5.7,23.9,13.4,25.7l0,0c0.6-0.1,1.2-0.2,1.9-0.5l0,0c-7-3.4-8.9-18.7-14.3-26.1l0,0 C88.7,66.3,88.4,66.6,88,66.9"></path> <path class="st2" d="M94.9,62c-0.6,0-1.3,0.1-1.9,0.2c-1.7,0.3-3.5,1.1-5.3,2.2c0.5,0.5,1,1.1,1.4,1.6c1.8-1.5,3.6-2.6,5.4-3.2 c0.6-0.2,1.3-0.4,2-0.6C95.9,62.1,95.4,62,94.9,62"></path> <linearGradient id="SVGID_3_" gradientUnits="userSpaceOnUse" x1="-402.9218" y1="8.0439" x2="-402.9218" y2="7.6707" gradientTransform="matrix(45.4522 0 0 84.5 18417.2559 -587.8047)"> <stop offset="0" style="stop-color:#1C63B7"></stop> <stop offset="0.5" style="stop-color:#33BDF2"></stop> <stop offset="1" style="stop-color:#33BDF2;stop-opacity:0.4196"></stop> </linearGradient> <path class="st3" d="M108.7,88.9c0.7-0.6,1.5-1.2,2.1-1.9c-3-8.9-4.1-25.1-12.6-25.1c-0.6,0-1.2,0.1-1.9,0.2 C104.2,64.1,105.2,81.2,108.7,88.9"></path> <path class="st4" d="M96.4,62.2c-0.5-0.2-1-0.2-1.5-0.2h3.4C97.6,62,97,62.1,96.4,62.2"></path> <path class="st5" d="M108.6,90.9c-0.3-0.3-0.6-0.6-1-1.1c-1.5,1.1-2.9,1.8-4.3,2.3c0.5,0.2,1.1,0.4,1.6,0.6 c0.4,0.1,0.9,0.2,1.4,0.2c1.6,0,2.8-0.2,4-0.7C109.6,91.8,109.1,91.4,108.6,90.9"></path> <linearGradient id="SVGID_4_" gradientUnits="userSpaceOnUse" x1="-402.7419" y1="7.4377" x2="-402.7419" y2="7.9129" gradientTransform="matrix(45.0105 0 0 86.5982 18229.1582 -587.2497)"> <stop offset="0" style="stop-color:#166AB8"></stop> <stop offset="0.4" style="stop-color:#36AEE8"></stop> <stop offset="0.4" style="stop-color:#36AEE8"></stop> <stop offset="0.8462" style="stop-color:#0798DD"></stop> <stop offset="0.8462" style="stop-color:#0798DD"></stop> <stop offset="1" style="stop-color:#0798DD"></stop> </linearGradient> <path class="st6" d="M94.4,62.7c7.1,3.6,7.6,20.3,13.2,27l0,0c0.4-0.2,0.7-0.6,1.1-0.8l0,0c-3.5-7.8-4.5-24.8-12.3-26.8l0,0 C95.7,62.3,95,62.5,94.4,62.7"></path> <linearGradient id="SVGID_5_" gradientUnits="userSpaceOnUse" x1="-404.5384" y1="6.9781" x2="-404.5384" y2="7.4533" gradientTransform="matrix(58.3509 0 0 92.0822 23703.4805 -585.5053)"> <stop offset="0" style="stop-color:#124379"></stop> <stop offset="0.39" style="stop-color:#1487CB"></stop> <stop offset="0.39" style="stop-color:#1487CB"></stop> <stop offset="0.7802" style="stop-color:#165197"></stop> <stop offset="0.7802" style="stop-color:#165197"></stop> <stop offset="1" style="stop-color:#165197"></stop> </linearGradient> <path class="st7" d="M89,66c5.4,7.4,7.3,22.7,14.3,26.1l0,0c1.5-0.5,2.8-1.3,4.3-2.3l0,0c-5.6-6.7-6.2-23.3-13.2-27l0,0 C92.6,63.4,90.8,64.5,89,66"></path> <linearGradient id="SVGID_6_" gradientUnits="userSpaceOnUse" x1="-389.9051" y1="20.9331" x2="-389.5865" y2="20.9331" gradientTransform="matrix(19.4176 0 0 30.9219 7651.7593 -576.8033)"> <stop offset="0" style="stop-color:#33BDF2;stop-opacity:0.698"></stop> <stop offset="1" style="stop-color:#1DACD8"></stop> </linearGradient> <path class="st8" d="M83.5,67.7c-0.8,1.9-1.7,4.4-2.8,7.7c2.1-2.9,4.1-5.4,6.2-7.5c-0.2-0.9-0.6-1.7-0.9-2.4 C85.2,66.2,84.3,66.9,83.5,67.7"></path> <path class="st9" d="M86.7,65c-0.2,0.2-0.5,0.3-0.7,0.6c0.3,0.7,0.6,1.5,0.9,2.4c0.4-0.3,0.7-0.7,1.1-1.1 C87.6,66.2,87.2,65.6,86.7,65"></path> <path class="st10" d="M87.6,64.4c-0.3,0.2-0.6,0.4-0.9,0.6c0.5,0.6,0.9,1.2,1.3,1.9c0.3-0.3,0.6-0.6,1-0.8 C88.6,65.4,88.1,64.9,87.6,64.4"></path> <linearGradient id="SVGID_7_" gradientUnits="userSpaceOnUse" x1="-407.0493" y1="6.9023" x2="-407.0493" y2="6.591" gradientTransform="matrix(79.1425 0 0 98.6787 32341.9883 -590.0109)"> <stop offset="0" style="stop-color:#136AB4"></stop> <stop offset="0.6" style="stop-color:#59CAF5;stop-opacity:0.549"></stop> <stop offset="1" style="stop-color:#59CAF5;stop-opacity:0.2353"></stop> </linearGradient> <path class="st11" d="M135.5,61.4c-4,15.3-12.2,27.6-19.2,30.7l0,0c-0.2,0.1-0.2,0.1-0.4,0.2c0,0,0,0-0.1,0c0,0-0.1,0-0.1,0.1 c0,0,0,0-0.1,0s-0.1,0-0.2,0.1h-0.1h-0.1h-0.1h-0.1c-0.1,0-0.1,0-0.2,0.1c0,0,0,0-0.1,0h-0.1h-0.1h-0.1c-0.1,0-0.1,0-0.2,0 c0.3,0.1,0.6,0.2,1,0.2c6.6,0,13.2-11.8,24.2-31.5L135.5,61.4L135.5,61.4z"></path> <linearGradient id="SVGID_8_" gradientUnits="userSpaceOnUse" x1="-405.1138" y1="6.7159" x2="-404.7952" y2="6.7159" gradientTransform="matrix(72.0226 0 0 99.1613 29236.1328 -587.8852)"> <stop offset="0" style="stop-color:#05A1E6;stop-opacity:0.2471"></stop> <stop offset="1" style="stop-color:#05A1E6"></stop> </linearGradient> <path class="st12" d="M79.3,62.7L79.3,62.7C79.3,62.7,79.4,62.7,79.3,62.7L79.3,62.7c0.1,0,0.1-0.1,0.2-0.1l0,0l0,0 c0,0,0.1,0,0.1-0.1l0,0c0.1,0,0.2-0.1,0.2-0.1l0,0h0.1c0,0,0,0,0.1,0H80c0,0,0,0,0.1,0c0.1,0,0.2-0.1,0.3-0.1c0,0,0,0,0.1,0h0.1 c0,0,0,0,0.1,0h0.1l0,0c0.1,0,0.2,0,0.2-0.1h0.1h0.1c0,0,0,0,0.1,0h0.1c0,0,0,0,0.1,0c0.1,0,0.2,0,0.2,0c-0.2,0-0.5,0-0.7,0 c-7.5,0-17.7,13.8-22.2,31.6h0.9c1.5-2.6,2.8-5.1,4-7.5C66.9,73.5,73.5,64.9,79.3,62.7"></path> <path class="st13" d="M83.5,67.7c0.8-0.8,1.7-1.5,2.5-2.2c-0.2-0.4-0.4-0.8-0.6-1.1C84.7,65.2,84.1,66.3,83.5,67.7"></path> <path class="st13" d="M84.1,62.7c0.5,0.4,0.9,1,1.3,1.6c0.2-0.2,0.2-0.3,0.4-0.4C85.2,63.5,84.6,63,84.1,62.7L84.1,62.7L84.1,62.7 "></path> <linearGradient id="SVGID_9_" gradientUnits="userSpaceOnUse" x1="-402.1215" y1="9.1814" x2="-402.1215" y2="8.7552" gradientTransform="matrix(49.0511 0 0 73.8222 19795.9688 -585.9014)"> <stop offset="0" style="stop-color:#318ED5"></stop> <stop offset="1" style="stop-color:#38A7E4"></stop> </linearGradient> <path class="st14" d="M63.6,86.2c6.7-13.1,10-21.3,15.6-23.5l0,0C73.5,64.9,66.9,73.5,63.6,86.2"></path> <path class="st15" d="M85.8,64c-0.2,0.2-0.2,0.2-0.4,0.4c0.2,0.3,0.4,0.7,0.6,1.1c0.2-0.2,0.5-0.4,0.7-0.6 C86.4,64.6,86.1,64.3,85.8,64"></path> <linearGradient id="SVGID_10_" gradientUnits="userSpaceOnUse" x1="-401.5329" y1="11.1657" x2="-401.5329" y2="10.6305" gradientTransform="matrix(45.6036 0 0 57.1283 18384.8398 -545.8685)"> <stop offset="0" style="stop-color:#05A1E6"></stop> <stop offset="1" style="stop-color:#05A1E6;stop-opacity:0.549"></stop> </linearGradient> <path class="st16" d="M66.7,93.6L66.7,93.6c-0.1,0-0.1,0-0.2,0l0,0h-0.1l0,0c-0.1,0-0.2,0-0.2,0l0,0c6.8-0.2,10-3.6,11.5-8.6 c1.2-3.7,2.2-7,3-9.6c-2.8,4.1-5.8,8.8-8.7,14.3C70.7,92.3,68.6,93.3,66.7,93.6"></path> <linearGradient id="SVGID_11_" gradientUnits="userSpaceOnUse" x1="-402.8629" y1="8.1825" x2="-402.8629" y2="7.864" gradientTransform="matrix(52.5191 0 0 81.0936 21233.1094 -569.9984)"> <stop offset="0" style="stop-color:#1959A6"></stop> <stop offset="0.5" style="stop-color:#05A1E6"></stop> <stop offset="0.5" style="stop-color:#05A1E6"></stop> <stop offset="0.9176" style="stop-color:#7EC5EA"></stop> <stop offset="1" style="stop-color:#7EC5EA"></stop> </linearGradient> <path class="st17" d="M66.7,93.6L66.7,93.6c1.8-0.2,4-1.3,5.4-3.9l0,0c2.9-5.4,5.8-10.2,8.7-14.3l0,0c1.1-3.2,1.9-5.8,2.8-7.7l0,0 C77.8,73.1,72.1,82.2,66.7,93.6"></path> <path class="st18" d="M63.6,86.2c-1.2,2.4-2.5,4.8-4,7.5h2.6C62.6,91,63.1,88.5,63.6,86.2"></path> <linearGradient id="SVGID_12_" gradientUnits="userSpaceOnUse" x1="-405.0835" y1="6.8642" x2="-405.1515" y2="6.5812" gradientTransform="matrix(72.6768 0 0 99.0047 29516.3281 -587.7108)"> <stop offset="0" style="stop-color:#165096"></stop> <stop offset="1" style="stop-color:#0D82CA"></stop> </linearGradient> <path class="st19" d="M81.5,62.1L81.5,62.1L81.5,62.1c-0.1,0-0.1,0-0.2,0l0,0c0,0,0,0-0.1,0l0,0h-0.1l0,0c0,0,0,0-0.1,0l0,0 c-0.1,0-0.2,0-0.2,0l0,0l0,0l0,0h-0.1l0,0c0,0,0,0-0.1,0l0,0h-0.1l0,0c0,0,0,0-0.1,0l0,0c-0.1,0-0.2,0.1-0.3,0.1l0,0 c0,0,0,0-0.1,0l0,0H80l0,0c0,0,0,0-0.1,0l0,0h-0.1l0,0l0,0l0,0c-0.1,0-0.2,0.1-0.2,0.1l0,0l0,0l0,0h-0.1l0,0c0,0,0,0-0.1,0l0,0 h-0.1l0,0l0,0l0,0c-5.7,2.3-8.8,10.5-15.6,23.5l0,0c-0.6,2.4-1.1,4.9-1.5,7.5l0,0h0.3c1.1,0,1.3,0,2.5,0l0,0h0.1h0.2h0.1l0,0h0.1 l0,0l0,0h0.1h0.2h0.1H66l0,0h0.2l0,0c0.1,0,0.2,0,0.2,0l0,0l0,0l0,0h0.1l0,0l0,0l0,0c0,0,0.1,0,0.2,0l0,0 c5.3-11.3,11-20.4,16.7-25.9l0,0c0.6-1.5,1.2-2.5,1.9-3.3l0,0c-0.4-0.6-0.8-1.2-1.3-1.6l0,0l0,0l0,0H84l0,0c0,0-0.1,0-0.1-0.1l0,0 h-0.1l0,0h-0.1l0,0h-0.1l0,0c-0.1,0-0.1-0.1-0.2-0.1l0,0h-0.1l0,0c0,0-0.1,0-0.1-0.1l0,0c0,0,0,0-0.1,0l0,0c-0.1,0-0.1,0-0.2-0.1 l0,0l0,0l0,0c-0.1,0-0.1,0-0.2-0.1l0,0l0,0l0,0c-0.1,0-0.1,0-0.2-0.1l0,0l0,0l0,0c-0.2,0-0.2-0.1-0.4-0.1l0,0l0,0l0,0 c-0.1,0-0.1,0-0.2,0l0,0l0,0l0,0c-0.1,0-0.2,0-0.2,0l0,0l0,0l0,0c-0.1,0-0.1,0-0.2,0l0,0C81.6,62.1,81.6,62.1,81.5,62.1"></path> <linearGradient id="SVGID_13_" gradientUnits="userSpaceOnUse" x1="-400.9399" y1="11.6017" x2="-400.9399" y2="11.3458" gradientTransform="matrix(32.7663 0 0 57.2261 13259.293 -587.8487)"> <stop offset="0" style="stop-color:#05A1E6"></stop> <stop offset="0.8736" style="stop-color:#0495D6"></stop> <stop offset="1" style="stop-color:#0495D6"></stop> </linearGradient> <path class="st20" d="M120,69.8c-1.3,4.1-2.4,7.6-3.2,10.5l0,0c3.6-4.9,7.1-11.1,10.5-18.2l0,0C123.2,63.2,121.2,66.1,120,69.8"></path> <linearGradient id="SVGID_14_" gradientUnits="userSpaceOnUse" x1="-405.6783" y1="6.7486" x2="-405.777" y2="7.099" gradientTransform="matrix(60.2691 0 0 96.3231 24578.6563 -589.9973)"> <stop offset="0" style="stop-color:#38A7E4;stop-opacity:0.3294"></stop> <stop offset="0.9615" style="stop-color:#0E88D3"></stop> <stop offset="0.9615" style="stop-color:#0E88D3"></stop> <stop offset="1" style="stop-color:#0E88D3"></stop> </linearGradient> <path class="st21" d="M116.8,91.8c-0.2,0.1-0.3,0.2-0.6,0.2c7-3.1,15.2-15.4,19.2-30.7h-0.8C125.6,77.7,122.7,88.5,116.8,91.8"></path> <path class="st22" d="M112.3,90.4c1.5-1.9,2.8-4.9,4.5-10.1c-1.9,2.7-3.9,4.9-5.8,6.8l0,0C111.3,88.4,111.7,89.5,112.3,90.4"></path> <path class="st5" d="M112.3,90.4c-0.5,0.6-1.1,1.1-1.7,1.5c-0.2,0.1-0.2,0.2-0.4,0.2c0.6,0.3,1.4,0.6,2.1,0.6l0,0 c0.1,0,0.2,0,0.3,0l0,0c0.1,0,0.1,0,0.2,0l0,0h0.2h0.2h0.1h0.2h0.1c0.1,0,0.1,0,0.2,0l0,0h0.1c0.1,0,0.1,0,0.2,0l0,0 c0,0,0,0,0.1,0s0.1,0,0.2,0h0.1c0.1,0,0.1,0,0.2,0l0,0l0,0c0.1,0,0.2-0.1,0.3-0.1C113.7,92.3,112.9,91.5,112.3,90.4"></path> <path class="st23" d="M99.5,92.8c0.6,0,1.3-0.1,1.9-0.2c0.6-0.1,1.2-0.2,1.9-0.5c0.5,0.2,1.1,0.4,1.6,0.6c0.4,0.1,0.9,0.2,1.4,0.2 L99.5,92.8L99.5,92.8z"></path> <path class="st23" d="M106.3,92.8c1.6,0,2.8-0.2,4-0.7c0.6,0.3,1.4,0.6,2.1,0.6l0,0c0.1,0,0.2,0,0.3,0l0,0c0.1,0,0.1,0,0.2,0l0,0 h0.2L106.3,92.8L106.3,92.8z"></path> <path class="st24" d="M113.1,92.8h0.2h0.1h0.2h0.1c0.1,0,0.1,0,0.2,0l0,0h0.1c0.1,0,0.1,0,0.2,0l0,0c0,0,0,0,0.1,0s0.1,0,0.2,0 c0,0,0,0,0.1,0s0.1,0,0.2,0l0,0l0,0c0.1,0,0.2-0.1,0.3-0.1l0,0c0.3,0.1,0.6,0.2,1,0.2L113.1,92.8L113.1,92.8z"></path> <path class="st25" d="M110.9,87.1L110.9,87.1c-0.7,0.6-1.5,1.3-2.1,1.9c-0.4,0.3-0.7,0.6-1.1,0.8c0.3,0.4,0.6,0.7,1,1.1 c0.5,0.5,1.1,0.9,1.6,1.2c0.2-0.1,0.2-0.2,0.4-0.2c0.6-0.3,1.1-0.8,1.7-1.5C111.8,89.5,111.3,88.4,110.9,87.1"></path> <linearGradient id="SVGID_15_" gradientUnits="userSpaceOnUse" x1="-406.4223" y1="6.6379" x2="-406.4223" y2="6.9633" gradientTransform="matrix(70.2816 0 0 98.1105 28687.4434 -590.0066)"> <stop offset="0" style="stop-color:#168CD4"></stop> <stop offset="0.5" style="stop-color:#1C87CC"></stop> <stop offset="1" style="stop-color:#154B8D"></stop> </linearGradient> <path class="st26" d="M132.2,61.4h-3.4h-0.3l0,0h-0.3l0,0l0,0c-0.2,0-0.4,0-0.6,0l0,0c-0.1,0.2-0.2,0.4-0.3,0.6l0,0 c-3.3,7.1-6.9,13.3-10.5,18.2l0,0c-1.7,5.2-2.9,8.3-4.5,10.1l0,0c0.6,1.1,1.4,1.9,2.3,2.2l0,0h0.1l0,0l0,0l0,0c0,0,0,0,0.1,0l0,0 h0.1l0,0h0.1l0,0h0.1l0,0h0.1l0,0c0.1,0,0.1,0,0.2-0.1l0,0h0.1l0,0h0.1l0,0h0.1l0,0h0.1l0,0c0.1,0,0.1,0,0.2-0.1l0,0 c0,0,0,0,0.1,0l0,0c0,0,0.1,0,0.1-0.1l0,0c0,0,0,0,0.1,0l0,0c0.2-0.1,0.2-0.1,0.4-0.2l0,0l0,0l0,0c0.2-0.1,0.3-0.2,0.6-0.2l0,0 c5.8-3.2,8.8-14.1,17.8-30.4l0,0L132.2,61.4L132.2,61.4z"></path> <path class="st27" d="M81.7,62.1L81.7,62.1c0.1,0,0.1,0,0.2,0l0,0c0.1,0,0.2,0,0.2,0l0,0c0.1,0,0.1,0,0.2,0l0,0 c0.2,0,0.2,0.1,0.4,0.1l0,0c0.1,0,0.1,0,0.2,0.1c0,0,0,0,0.1,0s0.1,0,0.2,0.1l0,0c0.1,0,0.1,0,0.2,0.1c0,0,0,0,0.1,0 c0,0,0.1,0,0.1,0.1h0.1c0.1,0,0.1,0.1,0.2,0.1h0.1h0.1h0.1c0,0,0.1,0,0.1,0.1c0.6,0.3,1.2,0.7,1.8,1.2c0.2-0.2,0.4-0.4,0.6-0.6 c-1.2-0.9-2.6-1.4-4.1-1.4C82.1,62,81.9,62.1,81.7,62.1"></path> <path class="st28" d="M85.8,64c0.3,0.3,0.6,0.6,1,1.1c0.3-0.2,0.6-0.4,0.9-0.6c-0.4-0.4-0.8-0.7-1.2-1.1 C86.2,63.6,86,63.7,85.8,64"></path> <linearGradient id="SVGID_16_" gradientUnits="userSpaceOnUse" x1="-398.6029" y1="-151.611" x2="-398.3763" y2="-152.329" gradientTransform="matrix(32.4594 0 0 -4.2491 13020.9551 -583.6213)"> <stop offset="0" style="stop-color:#97D6EE"></stop> <stop offset="0.7033" style="stop-color:#55C1EA"></stop> <stop offset="1" style="stop-color:#55C1EA"></stop> </linearGradient> <path class="st29" d="M81.7,62.1c0.2,0,0.4,0,0.6,0c1.5,0,2.9,0.5,4.1,1.4c1.3-1,2.8-1.4,4.9-1.4H81C81.2,62,81.5,62,81.7,62.1"></path> <linearGradient id="SVGID_17_" gradientUnits="userSpaceOnUse" x1="-396.1268" y1="-86.1363" x2="-395.9073" y2="-85.7845" gradientTransform="matrix(26.4722 0 0 -7.484 10573.4355 -580.3877)"> <stop offset="0" style="stop-color:#7ACCEC"></stop> <stop offset="1" style="stop-color:#3FB7ED"></stop> </linearGradient> <path class="st30" d="M91.4,62c-2.1,0-3.6,0.3-4.9,1.4c0.4,0.3,0.8,0.6,1.2,1.1c1.8-1.1,3.5-1.9,5.3-2.2c0.6-0.2,1.3-0.2,1.9-0.2 L91.4,62L91.4,62z"></path> <linearGradient id="SVGID_18_" gradientUnits="userSpaceOnUse" x1="-404.5983" y1="8.0967" x2="-404.5983" y2="8.484" gradientTransform="matrix(52.0449 0 0 80.6355 21176.416 -589.8425)"> <stop offset="0" style="stop-color:#1DA7E7"></stop> <stop offset="1" style="stop-color:#37ABE7;stop-opacity:0"></stop> </linearGradient> <path class="st31" d="M116.7,80.3c0.9-2.8,1.9-6.2,3.2-10.5c1.1-3.7,3.2-6.6,7.1-7.8c0.1-0.2,0.2-0.4,0.3-0.6 c-6.4,0.4-9.3,3.6-10.9,8.4c-2.6,8.4-4.2,13.8-5.8,17.3C112.9,85.2,114.8,82.9,116.7,80.3"></path> <path d="M126.1,90.6h-0.7v2.3H125v-2.3h-0.7v-0.2h1.7L126.1,90.6L126.1,90.6z"></path> <path d="M129,92.8h-0.3v-1.7c0-0.2,0-0.3,0-0.5l0,0c0,0.1-0.1,0.2-0.1,0.2l-0.9,1.9h-0.2l-0.9-1.9c0-0.1-0.1-0.2-0.1-0.2l0,0 c0,0.1,0,0.2,0,0.5v1.7h-0.2v-2.5h0.4l0.7,1.8c0.1,0.2,0.1,0.2,0.1,0.3l0,0c0.1-0.2,0.1-0.2,0.1-0.3l0.8-1.8h0.4L129,92.8 L129,92.8z"></path> </g> </g> </svg> 