<?xml version="1.0" encoding="UTF-8"?> <svg xmlns="http://www.w3.org/2000/svg" id="Layer_1" data-name="Layer 1" viewBox="0 0 170 170"><defs><style>.cls-1{fill:#8e6849;}.cls-2{fill:#fff;}</style></defs><title>mocha-logo</title><path class="cls-1" d="M117.86,106.43,87.14,124.14a4.51,4.51,0,0,1-4.28,0L52.14,106.43A4.28,4.28,0,0,1,50,102.71V67.29a4.46,4.46,0,0,1,2.14-3.72L82.86,45.86a4.51,4.51,0,0,1,4.28,0l30.72,17.71A4.28,4.28,0,0,1,120,67.29v35.57A4.22,4.22,0,0,1,117.86,106.43Z"></path><path class="cls-2" d="M85,50.57a3.14,3.14,0,0,0-1.86.57L56.57,66.43a3.56,3.56,0,0,0-1.86,3.14v30.72a3.56,3.56,0,0,0,1.86,3.14l26.57,15.28a4,4,0,0,0,1.86.58,3.15,3.15,0,0,0,1.86-.58l26.57-15.28a3.56,3.56,0,0,0,1.86-3.14V69.57a3.56,3.56,0,0,0-1.86-3.14L86.86,51.14A4.76,4.76,0,0,0,85,50.57Zm0,1.29a2.69,2.69,0,0,1,1.14.28l26.57,15.29a2.51,2.51,0,0,1,1.15,2.14v30.72a2.52,2.52,0,0,1-1.15,2.14L86.14,117.71A3.2,3.2,0,0,1,85,118a2.55,2.55,0,0,1-1.14-.29L57.14,102.43A2.53,2.53,0,0,1,56,100.29V69.71a2.53,2.53,0,0,1,1.14-2.14L83.71,52.29A2.29,2.29,0,0,1,85,51.86ZM82.57,78.57h3.57c.15,0,.15,0,.29-.14C88.57,76,88.71,71,88.71,69.57a.46.46,0,0,0-.42-.43h-8a.46.46,0,0,0-.43.43c0,1.43.14,6.43,2.28,8.86A.54.54,0,0,0,82.57,78.57Zm-1-8h5.57a.45.45,0,0,1,.43.43c0,1.14-.14,4.57-1.71,6.29-.15.14-.15.14-.29.14H83c-.14,0-.14,0-.29-.14C81.29,75.57,81.14,72.14,81,71,81.14,70.71,81.29,70.57,81.57,70.57Zm3.57-2.28a1.77,1.77,0,0,0,.57-2.58c-.57-.85-.85-1.57-.57-1.85-.57.71-1.43,1.43-.43,3A3.69,3.69,0,0,1,85.14,68.29Zm-1.71.14a1.25,1.25,0,0,0,.43-1.72c-.43-.57-.57-1-.43-1.28a1.34,1.34,0,0,0-.29,2A3.4,3.4,0,0,1,83.43,68.43Zm-.14,8.43h2.14c.14,0,.14,0,.28-.15A8.27,8.27,0,0,0,87,73.43s0,.43-1,.71a9,9,0,0,1-3.86.15,7.38,7.38,0,0,0,1,2.42C83,76.86,83.14,76.86,83.29,76.86Zm-16,12V80.29H65.71L63,84.43l-2.57-4H58.86V89h1.43V82.86l2.71,4,2.71-4V89h1.58Zm9.42-8.29A3.42,3.42,0,0,0,75,80.14a8.56,8.56,0,0,0-1.86.29,3.25,3.25,0,0,0-1.43,1,5.47,5.47,0,0,0-1,1.43,7.27,7.27,0,0,0-.28,1.71,7.44,7.44,0,0,0,.28,1.72,4.89,4.89,0,0,0,.86,1.42,5,5,0,0,0,1.43,1,6.91,6.91,0,0,0,1.86.29,7.91,7.91,0,0,0,1.85-.29,3.2,3.2,0,0,0,1.43-1,4.85,4.85,0,0,0,1-1.42,7,7,0,0,0,.29-1.72,6.81,6.81,0,0,0-.29-1.71,4.84,4.84,0,0,0-.85-1.43A5.34,5.34,0,0,0,76.71,80.57Zm1.15,4.14c0,.43-.15.72-.15,1.15a3.54,3.54,0,0,1-.57,1,3,3,0,0,1-.85.57,2.78,2.78,0,0,1-1.15.28A2.73,2.73,0,0,1,74,87.43c-.29-.14-.57-.43-.86-.57a2.35,2.35,0,0,1-.57-1,1.58,1.58,0,0,1-.43-1.29c0-.43.15-.71.15-1.14a3.28,3.28,0,0,1,.57-1,2.82,2.82,0,0,1,.85-.57A2.11,2.11,0,0,1,75,81.57a2.55,2.55,0,0,1,1.14.29c.29.14.57.43.86.57a2.19,2.19,0,0,1,.57,1A3.45,3.45,0,0,1,77.86,84.71Zm6.28-1.28a3.76,3.76,0,0,1,.57-1,3,3,0,0,1,.86-.57,2.62,2.62,0,0,1,1.14-.29,2.76,2.76,0,0,1,1.29.29,2.6,2.6,0,0,1,1,.71l1-1.14-.57-.57a2.72,2.72,0,0,0-.72-.43c-.28-.14-.57-.14-.85-.29-.29,0-.72-.14-1-.14a6.91,6.91,0,0,0-1.86.29,3.25,3.25,0,0,0-1.43,1,3,3,0,0,0-.86,1.42,3.73,3.73,0,0,0-.28,1.72,7.27,7.27,0,0,0,.28,1.71,5.09,5.09,0,0,0,.86,1.43,5,5,0,0,0,1.43,1,3.56,3.56,0,0,0,1.71.29,3,3,0,0,0,1.15-.15,2,2,0,0,0,.85-.28,3,3,0,0,0,.72-.43c.28-.14.43-.43.71-.57l-1-1c-.43.28-.71.57-1.14.86a3.51,3.51,0,0,1-1.29.28,3.46,3.46,0,0,1-1.14-.28c-.28-.15-.57-.43-.86-.58a2.39,2.39,0,0,1-.57-1A3.16,3.16,0,0,1,84,84.57,1.53,1.53,0,0,1,84.14,83.43Zm9-3.14v8.57h1.43V85.29h4.14v3.57h1.43V80.29H98.71v3.57H94.57V80.29Zm16.43,6.57.86,2H112l-3.71-8.57h-1.43l-3.72,8.57h1.57l.86-2Zm-2-4.72L109,85.57h-2.86ZM57.86,92h54.28v-.43H57.86ZM89.14,75.57V76h23v-.43Zm-9.57,0H57.86V76H79.71A.53.53,0,0,1,79.57,75.57Z"></path></svg> 