<?xml version="1.0" encoding="UTF-8"?> <svg xmlns="http://www.w3.org/2000/svg" id="Layer_1" data-name="Layer 1" viewBox="0 0 170 170"><defs><style>.cls-1{fill:#077690;}.cls-2{fill:#f29221;}</style></defs><title>mysql</title><path class="cls-1" d="M61.41,110.45H57.87q-.19-8.9-1-16.71h0l-5.39,16.71H48.79L43.43,93.74h0q-.59,7.52-.75,16.71H39.5q.33-11.24,1.56-21h4.35l5.07,15.41h0l5.09-15.41h4.16q1.41,11.46,1.68,21"></path><path class="cls-1" d="M76.61,95Q74.47,106.61,71,111.82c-1.83,2.72-3.83,4.07-6,4.07a5.88,5.88,0,0,1-2.18-.5v-1.83a10.24,10.24,0,0,0,1.46.1,3.48,3.48,0,0,0,2.45-.85,3,3,0,0,0,1.12-2.24,15,15,0,0,0-.82-3.63L63.13,95h3.45l2.76,9a12.12,12.12,0,0,1,.77,4.26A58.37,58.37,0,0,0,73.28,95Z"></path><polygon class="cls-2" points="123.34 110.45 113.37 110.45 113.37 89.48 116.73 89.48 116.73 107.87 123.34 107.87 123.34 110.45"></polygon><path class="cls-2" d="M110.76,111l-3.85-1.9a10.65,10.65,0,0,0,1-.94c1.63-1.92,2.45-4.78,2.45-8.54q0-10.41-8.16-10.42a7.73,7.73,0,0,0-6.25,2.63c-1.64,1.94-2.46,4.77-2.46,8.52s.73,6.39,2.18,8.11a7.47,7.47,0,0,0,6,2.33,10.57,10.57,0,0,0,2.74-.36l5,2.92Zm-12.49-4.71c-.86-1.36-1.28-3.56-1.28-6.58,0-5.28,1.6-7.88,4.86-7.88a4.08,4.08,0,0,1,3.7,1.9q1.28,2.06,1.28,6.53,0,8-4.82,8a4,4,0,0,1-3.7-1.9"></path><path class="cls-2" d="M92,104.63A5.52,5.52,0,0,1,90,109a7.74,7.74,0,0,1-5.25,1.7,10.53,10.53,0,0,1-6-2l.91-1.8a10.38,10.38,0,0,0,4.49,1.24,4.82,4.82,0,0,0,3-.83A2.89,2.89,0,0,0,88.37,105c0-1.25-.86-2.3-2.46-3.2l-4.42-2.5a5,5,0,0,1-2.38-4.49,5.26,5.26,0,0,1,1.78-4.12,6.76,6.76,0,0,1,4.62-1.57,9.64,9.64,0,0,1,5.31,1.56L90,92.51a10.34,10.34,0,0,0-4-.86,3.61,3.61,0,0,0-2.49.77,2.59,2.59,0,0,0-.94,2c0,1.25.89,2.33,2.53,3.24l4.49,2.51a5,5,0,0,1,2.46,4.5"></path><path class="cls-1" d="M127.56,82.45a12.08,12.08,0,0,0-4.92.7c-.39.16-1,.16-1,.64.2.21.23.53.41.81a6,6,0,0,0,1.31,1.58c.54.4,1.12.81,1.63,1.12,1,.62,2.1,1,3.06,1.57.56.36,1.12.81,1.68,1.19.27.21.45.54.81.67v-.06a8.72,8.72,0,0,1-.4-.81,7.88,7.88,0,0,0-.77-.74,11.83,11.83,0,0,0-2.64-2.55c-.81-.56-2.58-1.33-2.91-2.25h0a9.31,9.31,0,0,0,1.66-.48c.87-.23,1.66-.18,2.53-.4l1.23-.35v-.28c-.46-.45-.79-1.07-1.27-1.5a34.32,34.32,0,0,0-4.18-3.11,29.08,29.08,0,0,0-2.64-1.27c-.31-.16-.81-.22-1-.48a10.47,10.47,0,0,1-1-2c-.75-1.39-1.45-2.93-2.08-4.4a29.91,29.91,0,0,0-1.29-2.89,25.53,25.53,0,0,0-9.81-9.48,12.36,12.36,0,0,0-3.25-1c-.64,0-1.27-.07-1.9-.1a9.42,9.42,0,0,1-1.12-.88c-1.45-.91-5.17-2.89-6.24-.29-.68,1.66,1,3.27,1.6,4.12a12.7,12.7,0,0,1,1.23,1.94c.18.43.23.89.41,1.35A31.31,31.31,0,0,0,98,66.18a11.92,11.92,0,0,0,1,1.57c.2.28.56.41.63.87a7.36,7.36,0,0,0-.59,1.9A11.24,11.24,0,0,0,99.68,79c.41.63,1.37,2,2.67,1.5s.88-1.9,1.21-3.17c.08-.31,0-.51.18-.71h0c.35.71.71,1.39,1,2.11a14.31,14.31,0,0,0,3.31,3.37c.6.45,1.12,1.24,1.84,1.52v-.08h0a3.23,3.23,0,0,0-.59-.51A11.42,11.42,0,0,1,108,81.68a31.45,31.45,0,0,1-2.8-4.66c-.4-.79-.76-1.64-1.12-2.43-.16-.3-.16-.76-.41-.91a8.9,8.9,0,0,0-1.21,1.72,14.73,14.73,0,0,0-.72,3.83h-.1c-.81-.2-1.12-1-1.39-1.74a11,11,0,0,1-.23-6.74c.18-.53.95-2.25.63-2.71-.14-.48-.65-.76-.93-1.12a9.89,9.89,0,0,1-.91-1.62c-.61-1.42-.92-3-1.57-4.41a15.51,15.51,0,0,0-1.27-2,13.07,13.07,0,0,1-1.41-2c-.12-.28-.3-.74-.1-1a.37.37,0,0,1,.36-.32c.33-.28,1.26.06,1.6.22a14,14,0,0,1,2.5,1.27c.35.25.73.73,1.19.87h.53a19.62,19.62,0,0,1,2.48.26A16.46,16.46,0,0,1,106.8,60a22.47,22.47,0,0,1,7.86,8.67c.3.57.44,1.12.71,1.72.54,1.25,1.19,2.5,1.73,3.73a16.49,16.49,0,0,0,1.79,3.37c.39.53,1.9.81,2.59,1.12a17.79,17.79,0,0,1,1.75.71c.86.53,1.72,1.12,2.53,1.73.4.3,1.67.93,1.75,1.44"></path><path class="cls-2" d="M129.94,110.45h.53v-2.57h-.8l-.64,1.75-.7-1.75h-.75v2.57h.49v-2h0l.74,2h.39l.74-2Zm-4.24,0h.56v-2.13H127v-.44h-2v.44h.76Z"></path></svg> 