<?xml version="1.0" encoding="UTF-8"?> <svg xmlns="http://www.w3.org/2000/svg" xmlns:xlink="http://www.w3.org/1999/xlink" id="Layer_1" data-name="Layer 1" viewBox="0 0 170 170"><defs><style>.cls-1,.cls-5{fill:url(#linear-gradient);}.cls-1{clip-rule:evenodd;}.cls-2,.cls-4{fill:#679e63;}.cls-3{fill:#333;}.cls-3,.cls-4,.cls-5{fill-rule:evenodd;}.cls-6{clip-path:url(#clip-path);}.cls-7{fill:none;}.cls-8{fill:url(#linear-gradient-3);}.cls-9{fill:url(#linear-gradient-4);}.cls-10{fill:url(#linear-gradient-5);}.cls-11{fill:url(#linear-gradient-6);}.cls-12{fill:url(#linear-gradient-7);}.cls-13{fill:url(#linear-gradient-8);}</style><linearGradient id="linear-gradient" x1="75.78" y1="72.62" x2="67.17" y2="90.17" gradientUnits="userSpaceOnUse"><stop offset="0" stop-color="#3f873f"></stop><stop offset="0.33" stop-color="#3f8b3d"></stop><stop offset="0.64" stop-color="#3e9637"></stop><stop offset="0.93" stop-color="#3da92e"></stop><stop offset="1" stop-color="#3dae2b"></stop></linearGradient><clipPath id="clip-path"><path id="_Clipping_Path_" data-name="&lt;Clipping Path&gt;" class="cls-1" d="M72.48,68.53a1.13,1.13,0,0,0-1.15,0L61.81,74a1.16,1.16,0,0,0-.58,1V86a1.16,1.16,0,0,0,.58,1l9.52,5.5a1.18,1.18,0,0,0,1.15,0L82,87a1.17,1.17,0,0,0,.57-1V75A1.17,1.17,0,0,0,82,74Z"></path></clipPath><linearGradient id="linear-gradient-3" x1="70.46" y1="81.81" x2="94.6" y2="63.97" gradientUnits="userSpaceOnUse"><stop offset="0.14" stop-color="#3f873f"></stop><stop offset="0.4" stop-color="#529f44"></stop><stop offset="0.71" stop-color="#63b649"></stop><stop offset="0.91" stop-color="#6abf4b"></stop></linearGradient><linearGradient id="linear-gradient-4" x1="60.9" y1="66.54" x2="82.92" y2="66.54" gradientUnits="userSpaceOnUse"><stop offset="0.09" stop-color="#6abf4b"></stop><stop offset="0.29" stop-color="#63b649"></stop><stop offset="0.6" stop-color="#529f44"></stop><stop offset="0.86" stop-color="#3f873f"></stop></linearGradient><linearGradient id="linear-gradient-5" x1="60.9" y1="80.52" x2="82.92" y2="80.52" xlink:href="#linear-gradient-4"></linearGradient><linearGradient id="linear-gradient-6" x1="60.9" y1="86.8" x2="82.92" y2="86.8" xlink:href="#linear-gradient-4"></linearGradient><linearGradient id="linear-gradient-7" x1="60.9" y1="89.65" x2="82.92" y2="89.65" xlink:href="#linear-gradient-4"></linearGradient><linearGradient id="linear-gradient-8" x1="86.13" y1="72.1" x2="72.54" y2="99.81" xlink:href="#linear-gradient"></linearGradient></defs><title>nodejs</title><path class="cls-2" d="M84.43,115.62a1.88,1.88,0,0,1-1-.25l-3-1.79c-.45-.25-.23-.34-.08-.39a6,6,0,0,0,1.37-.62.22.22,0,0,1,.22,0L84.29,114a.28.28,0,0,0,.28,0l9-5.21a.28.28,0,0,0,.13-.24V98.09a.27.27,0,0,0-.14-.25l-9-5.21a.28.28,0,0,0-.28,0l-9,5.21a.31.31,0,0,0-.14.25v10.42a.29.29,0,0,0,.14.24l2.48,1.43c1.34.67,2.16-.12,2.16-.92V99a.26.26,0,0,1,.26-.26h1.15a.26.26,0,0,1,.26.26v10.29a2.5,2.5,0,0,1-2.67,2.82,3.86,3.86,0,0,1-2.08-.56l-2.37-1.37a1.89,1.89,0,0,1-1-1.64V98.09a1.9,1.9,0,0,1,1-1.65l9-5.22a2,2,0,0,1,1.9,0l9,5.22a1.92,1.92,0,0,1,1,1.65v10.42a1.92,1.92,0,0,1-1,1.64l-9,5.22A1.88,1.88,0,0,1,84.43,115.62Z"></path><path class="cls-2" d="M87.22,108.44c-4,0-4.78-1.81-4.78-3.33a.25.25,0,0,1,.26-.26h1.16a.25.25,0,0,1,.26.22c.18,1.19.71,1.79,3.1,1.79,1.9,0,2.71-.43,2.71-1.44,0-.59-.23-1-3.19-1.31-2.47-.24-4-.79-4-2.76s1.54-2.91,4.11-2.91c2.9,0,4.33,1,4.51,3.16a.26.26,0,0,1-.07.2.27.27,0,0,1-.19.08H89.93a.28.28,0,0,1-.26-.2c-.28-1.25-1-1.65-2.82-1.65-2.07,0-2.32.72-2.32,1.26s.29.85,3.09,1.22,4.1.89,4.1,2.84S90.08,108.44,87.22,108.44Z"></path><path class="cls-2" d="M100.24,97.51a1.74,1.74,0,1,1-1.74-1.74A1.75,1.75,0,0,1,100.24,97.51Zm-3.2,0A1.45,1.45,0,0,0,98.49,99a1.46,1.46,0,1,0,0-2.92A1.45,1.45,0,0,0,97,97.51Zm.8-1h.68c.23,0,.68,0,.68.51a.45.45,0,0,1-.37.48c.27,0,.28.19.32.44a2.18,2.18,0,0,0,.1.52h-.41c0-.09-.08-.59-.08-.62s-.06-.16-.2-.16h-.34v.78h-.38Zm.37.85h.31a.26.26,0,0,0,.29-.27c0-.27-.18-.27-.29-.27h-.31Z"></path><path class="cls-3" d="M56.46,74.85a1.16,1.16,0,0,0-.58-1l-9.57-5.51a1.24,1.24,0,0,0-.53-.15h-.1a1.28,1.28,0,0,0-.53.15l-9.57,5.51a1.16,1.16,0,0,0-.58,1l0,14.83a.57.57,0,0,0,.29.5.53.53,0,0,0,.57,0l5.69-3.25a1.19,1.19,0,0,0,.58-1V79a1.15,1.15,0,0,1,.58-1l2.42-1.4a1.2,1.2,0,0,1,1.16,0L48.73,78a1.15,1.15,0,0,1,.58,1v6.93a1.19,1.19,0,0,0,.58,1l5.69,3.25a.53.53,0,0,0,.57,0,.57.57,0,0,0,.29-.5Z"></path><path class="cls-3" d="M102.53,54.45a.55.55,0,0,0-.57,0,.57.57,0,0,0-.29.5V69.65a.42.42,0,0,1-.2.35.43.43,0,0,1-.41,0l-2.39-1.38a1.15,1.15,0,0,0-1.16,0l-9.58,5.53a1.14,1.14,0,0,0-.58,1V86.21a1.16,1.16,0,0,0,.58,1l9.58,5.53a1.15,1.15,0,0,0,1.16,0l9.58-5.53a1.17,1.17,0,0,0,.57-1V58.64a1.15,1.15,0,0,0-.59-1Zm-.89,28.12a.27.27,0,0,1-.14.25l-3.29,1.9a.3.3,0,0,1-.29,0l-3.29-1.9a.27.27,0,0,1-.14-.25V78.78a.3.3,0,0,1,.14-.26l3.29-1.89a.26.26,0,0,1,.29,0l3.29,1.89a.3.3,0,0,1,.14.26Z"></path><path class="cls-3" d="M134.42,78.68a1.16,1.16,0,0,0,.58-1V75a1.14,1.14,0,0,0-.58-1l-9.51-5.53a1.15,1.15,0,0,0-1.16,0L114.17,74a1.15,1.15,0,0,0-.57,1v11a1.16,1.16,0,0,0,.58,1l9.51,5.42a1.18,1.18,0,0,0,1.14,0l5.75-3.2a.57.57,0,0,0,.3-.5.58.58,0,0,0-.29-.51L121,82.75a.57.57,0,0,1-.29-.5V78.78a.61.61,0,0,1,.28-.5l3-1.73a.6.6,0,0,1,.58,0l3,1.73a.59.59,0,0,1,.29.5v2.73a.57.57,0,0,0,.29.5.6.6,0,0,0,.58,0Z"></path><path class="cls-4" d="M124.19,78.16a.22.22,0,0,1,.22,0l1.84,1.06a.21.21,0,0,1,.11.19v2.12a.23.23,0,0,1-.11.2l-1.84,1.06a.22.22,0,0,1-.22,0l-1.84-1.06a.23.23,0,0,1-.11-.2V79.41a.21.21,0,0,1,.11-.19Z"></path><path id="_Clipping_Path_2" data-name="&lt;Clipping Path&gt;" class="cls-5" d="M72.48,68.53a1.13,1.13,0,0,0-1.15,0L61.81,74a1.16,1.16,0,0,0-.58,1V86a1.16,1.16,0,0,0,.58,1l9.52,5.5a1.18,1.18,0,0,0,1.15,0L82,87a1.17,1.17,0,0,0,.57-1V75A1.17,1.17,0,0,0,82,74Z"></path><g class="cls-6"><path class="cls-7" d="M71.31,68.53,61.77,74a1.2,1.2,0,0,0-.62,1V86a1.11,1.11,0,0,0,.3.73L72.17,68.41A1.18,1.18,0,0,0,71.31,68.53Z"></path><path class="cls-7" d="M72.23,92.63a1.53,1.53,0,0,0,.27-.11L82,87a1.18,1.18,0,0,0,.6-1V75a1.16,1.16,0,0,0-.35-.8Z"></path><path class="cls-8" d="M82,74l-9.55-5.49a.79.79,0,0,0-.3-.12L61.45,86.75a1.18,1.18,0,0,0,.32.27l9.57,5.5a1.2,1.2,0,0,0,.89.11l10-18.41A1.28,1.28,0,0,0,82,74Z"></path><path class="cls-7" d="M82.63,86V75A1.19,1.19,0,0,0,82,74l-9.55-5.49a.93.93,0,0,0-.35-.13L82.59,86.28A1.09,1.09,0,0,0,82.63,86Z"></path><path class="cls-7" d="M61.77,74a1.2,1.2,0,0,0-.62,1V86a1.22,1.22,0,0,0,.62,1l9.57,5.5a1.16,1.16,0,0,0,.73.14L61.83,74Z"></path><polygon class="cls-9" points="71.02 66.51 70.88 66.58 71.06 66.58 71.02 66.51"></polygon><path class="cls-10" d="M82,87a1.2,1.2,0,0,0,.56-.74L72.12,68.4a1.1,1.1,0,0,0-.81.13L61.83,74,72.07,92.66a1.36,1.36,0,0,0,.43-.14Z"></path><polygon class="cls-11" points="82.92 86.84 82.85 86.73 82.85 86.88 82.92 86.84"></polygon><path class="cls-12" d="M82,87l-9.53,5.5a1.36,1.36,0,0,1-.43.14l.19.35,10.59-6.13v-.15l-.26-.45A1.2,1.2,0,0,1,82,87Z"></path><path class="cls-13" d="M82,87l-9.53,5.5a1.36,1.36,0,0,1-.43.14l.19.35,10.59-6.13v-.15l-.26-.45A1.2,1.2,0,0,1,82,87Z"></path></g></svg> 