<?xml version="1.0" encoding="UTF-8"?> <svg xmlns="http://www.w3.org/2000/svg" id="Layer_1" data-name="Layer 1" viewBox="0 0 170 170"><defs><style>.cls-1{fill:#010101;}</style></defs><title>php</title><g id="Symbols"><g id="logos_technologies_php" data-name="logos/technologies/php"><g id="PHP_Logo__text_only" data-name="PHP_Logo,_text_only"><path id="path8" class="cls-1" d="M43,70.39H58q6.61.06,9.58,3.73t2,10a19,19,0,0,1-1.74,5.7,17,17,0,0,1-3.59,5,12.55,12.55,0,0,1-6,3.62,28.36,28.36,0,0,1-6.62.77H44.92l-2.13,10.42H35l8-39.33m6.56,6.26L46.21,93.1a3.79,3.79,0,0,0,.67.06h.78a30.31,30.31,0,0,0,9-1q3.59-1.14,4.82-8c.67-3.84,0-6.06-2-6.64A25.33,25.33,0,0,0,52,76.65c-.45,0-.88,0-1.29,0H49.51l.06,0"></path><path id="path10" class="cls-1" d="M77.7,60.28h7.54L83.11,70.74h6.78c3.71.08,6.48.84,8.3,2.3s2.41,4.24,1.64,8.33L96.17,99.61H88.52L92,82.19c.36-1.83.25-3.12-.33-3.89s-1.84-1.15-3.77-1.15l-6.07-.05L77.37,99.61H69.83L77.7,60.28"></path><path id="path12" class="cls-1" d="M108.18,70.39h15q6.61.06,9.58,3.73t2,10a19,19,0,0,1-1.73,5.7,17,17,0,0,1-3.59,5,12.57,12.57,0,0,1-6,3.62,28.21,28.21,0,0,1-6.61.77h-6.72L108,109.72h-7.79l8-39.33m6.56,6.26L111.38,93.1a3.71,3.71,0,0,0,.67.06h.78a30.31,30.31,0,0,0,9-1q3.58-1.14,4.82-8c.67-3.84,0-6.06-2-6.64a25.33,25.33,0,0,0-7.45-.82c-.45,0-.88,0-1.29,0h-1.18l.06,0"></path></g></g></g></svg> 