<?xml version="1.0" encoding="UTF-8"?> <svg xmlns="http://www.w3.org/2000/svg" xmlns:xlink="http://www.w3.org/1999/xlink" id="Layer_1" data-name="Layer 1" viewBox="0 0 170 170"><defs><style>.cls-1{fill:#fff;}.cls-2{mask:url(#mask);}.cls-3{fill:#33689f;}.cls-4{fill:#fdcd31;}</style><mask id="mask" x="45" y="41.85" width="59.22" height="59.8" maskUnits="userSpaceOnUse"><g id="mask-2"><polygon id="path-1" class="cls-1" points="45 41.85 104.22 41.85 104.22 101.66 45 101.66 45 41.85"></polygon></g></mask></defs><title>python-icon</title><g id="Symbols"><g id="logos_technologies_python" data-name="logos/technologies/python"><g id="Group"><g id="Page-1"><g id="Group-3"><g class="cls-2"><path id="Fill-1" class="cls-3" d="M74.09,47.77a3.68,3.68,0,1,1-3.62,3.69,3.66,3.66,0,0,1,3.62-3.69m10.43-5.91a54.58,54.58,0,0,0-9.22.78c-8.16,1.45-9.65,4.46-9.65,10V60H85v2.45H58.41c-5.61,0-10.52,3.37-12,9.78-1.77,7.35-1.85,11.94,0,19.61,1.37,5.72,4.65,9.79,10.25,9.79h6.64V92.84a12.26,12.26,0,0,1,12-12H94.58a9.72,9.72,0,0,0,9.64-9.8V52.67c0-5.23-4.41-9.16-9.64-10a60,60,0,0,0-10.06-.78"></path></g></g><path id="Fill-4" class="cls-4" d="M95.79,109a3.68,3.68,0,1,1-3.62,3.67A3.64,3.64,0,0,1,95.79,109Zm10.84-46.53v8.57a12.37,12.37,0,0,1-12,12.23H75.3a9.85,9.85,0,0,0-9.65,9.81v18.37c0,5.23,4.55,8.31,9.65,9.81a32.36,32.36,0,0,0,19.28,0c4.85-1.41,9.64-4.24,9.64-9.81v-7.35H85v-2.45h28.92c5.61,0,7.7-3.92,9.65-9.79,2-6,1.93-11.85,0-19.61-1.39-5.58-4-9.78-9.65-9.78Z"></path></g></g></g></g></svg> 