<?xml version="1.0" encoding="UTF-8"?> <svg xmlns="http://www.w3.org/2000/svg" id="Layer_1" data-name="Layer 1" viewBox="0 0 170 170"><defs><style>.cls-1{fill:#00a5ce;}.cls-2,.cls-3{fill:none;stroke-width:4.41px;}.cls-2{stroke:#00a5ce;}.cls-3{stroke:#01a5d2;}</style></defs><title>react-native</title><g id="logos_technologies_react-native" data-name="logos/technologies/react-native"><g id="logo-react"><g id="Group-2"><g id="Group"><ellipse id="circle4488" class="cls-1" cx="85" cy="84.93" rx="7.28" ry="7.32"></ellipse><path id="path4492" class="cls-2" d="M72.12,77.53C77,69,82.75,61.82,88.21,57c6.58-5.76,12.84-8,16.21-6s4.79,9,2.91,18.2c-1.42,7-4.82,15.2-9.45,23.28-4.75,8.29-10.19,15.59-15.58,20.32-6.81,6-13.4,8.16-16.85,6.16s-4.62-8.3-3-16.81C63.79,95,67.19,86.13,72.12,77.53Z"></path><path id="path4494" class="cls-3" d="M72.13,92.5C67.24,84,63.91,75.39,62.52,68.24c-1.68-8.6-.49-15.19,2.88-17.15s10.16.33,17.13,6.56c5.27,4.71,10.69,11.79,15.34,19.86,4.76,8.28,8.33,16.66,9.72,23.72,1.76,8.93.33,15.75-3.11,17.76s-9.47-.11-16-5.76C83,108.46,77.08,101.08,72.13,92.5Z"></path><path id="path4490" class="cls-3" d="M85,70.05c9.77,0,18.84,1.41,25.69,3.78C118.93,76.69,124,81,124,84.93c0,4.08-5.37,8.68-14.23,11.63C103.08,98.79,94.27,100,85,100c-9.51,0-18.51-1.1-25.28-3.42C51.16,93.59,46,88.94,46,84.93s4.84-8.18,13-11C65.84,71.49,75.14,70.05,85,70.05Z"></path></g></g></g></g></svg> 